<?xml version="1.0" encoding="utf-8" standalone="no"?>
<!DOCTYPE svg PUBLIC "-//W3C//DTD SVG 1.1//EN"
  "http://www.w3.org/Graphics/SVG/1.1/DTD/svg11.dtd">
<svg xmlns:xlink="http://www.w3.org/1999/xlink" width="460.8pt" height="345.6pt" viewBox="0 0 460.8 345.6" xmlns="http://www.w3.org/2000/svg" version="1.1">
 <metadata>
  <rdf:RDF xmlns:dc="http://purl.org/dc/elements/1.1/" xmlns:cc="http://creativecommons.org/ns#" xmlns:rdf="http://www.w3.org/1999/02/22-rdf-syntax-ns#">
   <cc:Work>
    <dc:type rdf:resource="http://purl.org/dc/dcmitype/StillImage"/>
    <dc:date>2024-06-02T00:01:01.598084</dc:date>
    <dc:format>image/svg+xml</dc:format>
    <dc:creator>
     <cc:Agent>
      <dc:title>Matplotlib v3.8.4, https://matplotlib.org/</dc:title>
     </cc:Agent>
    </dc:creator>
   </cc:Work>
  </rdf:RDF>
 </metadata>
 <defs>
  <style type="text/css">*{stroke-linejoin: round; stroke-linecap: butt}</style>
 </defs>
 <g id="figure_1">
  <g id="patch_1">
   <path d="M 0 345.6 
L 460.8 345.6 
L 460.8 0 
L 0 0 
z
" style="fill: #ffffff"/>
  </g>
  <g id="axes_1">
   <g id="patch_2">
    <path d="M 57.6 307.584 
L 414.72 307.584 
L 414.72 41.472 
L 57.6 41.472 
z
" style="fill: #ffffff"/>
   </g>
   <g id="matplotlib.axis_1">
    <g id="xtick_1">
     <g id="line2d_1">
      <path d="M 57.6 307.584 
L 57.6 41.472 
" clip-path="url(#p32f5cbf3ac)" style="fill: none; stroke: #b0b0b0; stroke-width: 0.8; stroke-linecap: square"/>
     </g>
     <g id="line2d_2">
      <defs>
       <path id="mbce7c97b98" d="M 0 0 
L 0 3.5 
" style="stroke: #000000; stroke-width: 0.8"/>
      </defs>
      <g>
       <use xlink:href="#mbce7c97b98" x="57.6" y="307.584" style="stroke: #000000; stroke-width: 0.8"/>
      </g>
     </g>
     <g id="text_1">
      <!-- 0 -->
      <g transform="translate(54.41875 322.182437) scale(0.1 -0.1)">
       <defs>
        <path id="DejaVuSans-30" d="M 2034 4250 
Q 1547 4250 1301 3770 
Q 1056 3291 1056 2328 
Q 1056 1369 1301 889 
Q 1547 409 2034 409 
Q 2525 409 2770 889 
Q 3016 1369 3016 2328 
Q 3016 3291 2770 3770 
Q 2525 4250 2034 4250 
z
M 2034 4750 
Q 2819 4750 3233 4129 
Q 3647 3509 3647 2328 
Q 3647 1150 3233 529 
Q 2819 -91 2034 -91 
Q 1250 -91 836 529 
Q 422 1150 422 2328 
Q 422 3509 836 4129 
Q 1250 4750 2034 4750 
z
" transform="scale(0.015625)"/>
       </defs>
       <use xlink:href="#DejaVuSans-30"/>
      </g>
     </g>
    </g>
    <g id="xtick_2">
     <g id="line2d_3">
      <path d="M 100.135632 307.584 
L 100.135632 41.472 
" clip-path="url(#p32f5cbf3ac)" style="fill: none; stroke: #b0b0b0; stroke-width: 0.8; stroke-linecap: square"/>
     </g>
     <g id="line2d_4">
      <g>
       <use xlink:href="#mbce7c97b98" x="100.135632" y="307.584" style="stroke: #000000; stroke-width: 0.8"/>
      </g>
     </g>
     <g id="text_2">
      <!-- 25 -->
      <g transform="translate(93.773132 322.182437) scale(0.1 -0.1)">
       <defs>
        <path id="DejaVuSans-32" d="M 1228 531 
L 3431 531 
L 3431 0 
L 469 0 
L 469 531 
Q 828 903 1448 1529 
Q 2069 2156 2228 2338 
Q 2531 2678 2651 2914 
Q 2772 3150 2772 3378 
Q 2772 3750 2511 3984 
Q 2250 4219 1831 4219 
Q 1534 4219 1204 4116 
Q 875 4013 500 3803 
L 500 4441 
Q 881 4594 1212 4672 
Q 1544 4750 1819 4750 
Q 2544 4750 2975 4387 
Q 3406 4025 3406 3419 
Q 3406 3131 3298 2873 
Q 3191 2616 2906 2266 
Q 2828 2175 2409 1742 
Q 1991 1309 1228 531 
z
" transform="scale(0.015625)"/>
        <path id="DejaVuSans-35" d="M 691 4666 
L 3169 4666 
L 3169 4134 
L 1269 4134 
L 1269 2991 
Q 1406 3038 1543 3061 
Q 1681 3084 1819 3084 
Q 2600 3084 3056 2656 
Q 3513 2228 3513 1497 
Q 3513 744 3044 326 
Q 2575 -91 1722 -91 
Q 1428 -91 1123 -41 
Q 819 9 494 109 
L 494 744 
Q 775 591 1075 516 
Q 1375 441 1709 441 
Q 2250 441 2565 725 
Q 2881 1009 2881 1497 
Q 2881 1984 2565 2268 
Q 2250 2553 1709 2553 
Q 1456 2553 1204 2497 
Q 953 2441 691 2322 
L 691 4666 
z
" transform="scale(0.015625)"/>
       </defs>
       <use xlink:href="#DejaVuSans-32"/>
       <use xlink:href="#DejaVuSans-35" x="63.623047"/>
      </g>
     </g>
    </g>
    <g id="xtick_3">
     <g id="line2d_5">
      <path d="M 142.671264 307.584 
L 142.671264 41.472 
" clip-path="url(#p32f5cbf3ac)" style="fill: none; stroke: #b0b0b0; stroke-width: 0.8; stroke-linecap: square"/>
     </g>
     <g id="line2d_6">
      <g>
       <use xlink:href="#mbce7c97b98" x="142.671264" y="307.584" style="stroke: #000000; stroke-width: 0.8"/>
      </g>
     </g>
     <g id="text_3">
      <!-- 50 -->
      <g transform="translate(136.308764 322.182437) scale(0.1 -0.1)">
       <use xlink:href="#DejaVuSans-35"/>
       <use xlink:href="#DejaVuSans-30" x="63.623047"/>
      </g>
     </g>
    </g>
    <g id="xtick_4">
     <g id="line2d_7">
      <path d="M 185.206896 307.584 
L 185.206896 41.472 
" clip-path="url(#p32f5cbf3ac)" style="fill: none; stroke: #b0b0b0; stroke-width: 0.8; stroke-linecap: square"/>
     </g>
     <g id="line2d_8">
      <g>
       <use xlink:href="#mbce7c97b98" x="185.206896" y="307.584" style="stroke: #000000; stroke-width: 0.8"/>
      </g>
     </g>
     <g id="text_4">
      <!-- 75 -->
      <g transform="translate(178.844396 322.182437) scale(0.1 -0.1)">
       <defs>
        <path id="DejaVuSans-37" d="M 525 4666 
L 3525 4666 
L 3525 4397 
L 1831 0 
L 1172 0 
L 2766 4134 
L 525 4134 
L 525 4666 
z
" transform="scale(0.015625)"/>
       </defs>
       <use xlink:href="#DejaVuSans-37"/>
       <use xlink:href="#DejaVuSans-35" x="63.623047"/>
      </g>
     </g>
    </g>
    <g id="xtick_5">
     <g id="line2d_9">
      <path d="M 227.742528 307.584 
L 227.742528 41.472 
" clip-path="url(#p32f5cbf3ac)" style="fill: none; stroke: #b0b0b0; stroke-width: 0.8; stroke-linecap: square"/>
     </g>
     <g id="line2d_10">
      <g>
       <use xlink:href="#mbce7c97b98" x="227.742528" y="307.584" style="stroke: #000000; stroke-width: 0.8"/>
      </g>
     </g>
     <g id="text_5">
      <!-- 100 -->
      <g transform="translate(218.198778 322.182437) scale(0.1 -0.1)">
       <defs>
        <path id="DejaVuSans-31" d="M 794 531 
L 1825 531 
L 1825 4091 
L 703 3866 
L 703 4441 
L 1819 4666 
L 2450 4666 
L 2450 531 
L 3481 531 
L 3481 0 
L 794 0 
L 794 531 
z
" transform="scale(0.015625)"/>
       </defs>
       <use xlink:href="#DejaVuSans-31"/>
       <use xlink:href="#DejaVuSans-30" x="63.623047"/>
       <use xlink:href="#DejaVuSans-30" x="127.246094"/>
      </g>
     </g>
    </g>
    <g id="xtick_6">
     <g id="line2d_11">
      <path d="M 270.27816 307.584 
L 270.27816 41.472 
" clip-path="url(#p32f5cbf3ac)" style="fill: none; stroke: #b0b0b0; stroke-width: 0.8; stroke-linecap: square"/>
     </g>
     <g id="line2d_12">
      <g>
       <use xlink:href="#mbce7c97b98" x="270.27816" y="307.584" style="stroke: #000000; stroke-width: 0.8"/>
      </g>
     </g>
     <g id="text_6">
      <!-- 125 -->
      <g transform="translate(260.73441 322.182437) scale(0.1 -0.1)">
       <use xlink:href="#DejaVuSans-31"/>
       <use xlink:href="#DejaVuSans-32" x="63.623047"/>
       <use xlink:href="#DejaVuSans-35" x="127.246094"/>
      </g>
     </g>
    </g>
    <g id="xtick_7">
     <g id="line2d_13">
      <path d="M 312.813792 307.584 
L 312.813792 41.472 
" clip-path="url(#p32f5cbf3ac)" style="fill: none; stroke: #b0b0b0; stroke-width: 0.8; stroke-linecap: square"/>
     </g>
     <g id="line2d_14">
      <g>
       <use xlink:href="#mbce7c97b98" x="312.813792" y="307.584" style="stroke: #000000; stroke-width: 0.8"/>
      </g>
     </g>
     <g id="text_7">
      <!-- 150 -->
      <g transform="translate(303.270042 322.182437) scale(0.1 -0.1)">
       <use xlink:href="#DejaVuSans-31"/>
       <use xlink:href="#DejaVuSans-35" x="63.623047"/>
       <use xlink:href="#DejaVuSans-30" x="127.246094"/>
      </g>
     </g>
    </g>
    <g id="xtick_8">
     <g id="line2d_15">
      <path d="M 355.349424 307.584 
L 355.349424 41.472 
" clip-path="url(#p32f5cbf3ac)" style="fill: none; stroke: #b0b0b0; stroke-width: 0.8; stroke-linecap: square"/>
     </g>
     <g id="line2d_16">
      <g>
       <use xlink:href="#mbce7c97b98" x="355.349424" y="307.584" style="stroke: #000000; stroke-width: 0.8"/>
      </g>
     </g>
     <g id="text_8">
      <!-- 175 -->
      <g transform="translate(345.805674 322.182437) scale(0.1 -0.1)">
       <use xlink:href="#DejaVuSans-31"/>
       <use xlink:href="#DejaVuSans-37" x="63.623047"/>
       <use xlink:href="#DejaVuSans-35" x="127.246094"/>
      </g>
     </g>
    </g>
    <g id="xtick_9">
     <g id="line2d_17">
      <path d="M 397.885056 307.584 
L 397.885056 41.472 
" clip-path="url(#p32f5cbf3ac)" style="fill: none; stroke: #b0b0b0; stroke-width: 0.8; stroke-linecap: square"/>
     </g>
     <g id="line2d_18">
      <g>
       <use xlink:href="#mbce7c97b98" x="397.885056" y="307.584" style="stroke: #000000; stroke-width: 0.8"/>
      </g>
     </g>
     <g id="text_9">
      <!-- 200 -->
      <g transform="translate(388.341306 322.182437) scale(0.1 -0.1)">
       <use xlink:href="#DejaVuSans-32"/>
       <use xlink:href="#DejaVuSans-30" x="63.623047"/>
       <use xlink:href="#DejaVuSans-30" x="127.246094"/>
      </g>
     </g>
    </g>
    <g id="text_10">
     <!-- Time (seconds) -->
     <g transform="translate(197.998281 335.860562) scale(0.1 -0.1)">
      <defs>
       <path id="DejaVuSans-54" d="M -19 4666 
L 3928 4666 
L 3928 4134 
L 2272 4134 
L 2272 0 
L 1638 0 
L 1638 4134 
L -19 4134 
L -19 4666 
z
" transform="scale(0.015625)"/>
       <path id="DejaVuSans-69" d="M 603 3500 
L 1178 3500 
L 1178 0 
L 603 0 
L 603 3500 
z
M 603 4863 
L 1178 4863 
L 1178 4134 
L 603 4134 
L 603 4863 
z
" transform="scale(0.015625)"/>
       <path id="DejaVuSans-6d" d="M 3328 2828 
Q 3544 3216 3844 3400 
Q 4144 3584 4550 3584 
Q 5097 3584 5394 3201 
Q 5691 2819 5691 2113 
L 5691 0 
L 5113 0 
L 5113 2094 
Q 5113 2597 4934 2840 
Q 4756 3084 4391 3084 
Q 3944 3084 3684 2787 
Q 3425 2491 3425 1978 
L 3425 0 
L 2847 0 
L 2847 2094 
Q 2847 2600 2669 2842 
Q 2491 3084 2119 3084 
Q 1678 3084 1418 2786 
Q 1159 2488 1159 1978 
L 1159 0 
L 581 0 
L 581 3500 
L 1159 3500 
L 1159 2956 
Q 1356 3278 1631 3431 
Q 1906 3584 2284 3584 
Q 2666 3584 2933 3390 
Q 3200 3197 3328 2828 
z
" transform="scale(0.015625)"/>
       <path id="DejaVuSans-65" d="M 3597 1894 
L 3597 1613 
L 953 1613 
Q 991 1019 1311 708 
Q 1631 397 2203 397 
Q 2534 397 2845 478 
Q 3156 559 3463 722 
L 3463 178 
Q 3153 47 2828 -22 
Q 2503 -91 2169 -91 
Q 1331 -91 842 396 
Q 353 884 353 1716 
Q 353 2575 817 3079 
Q 1281 3584 2069 3584 
Q 2775 3584 3186 3129 
Q 3597 2675 3597 1894 
z
M 3022 2063 
Q 3016 2534 2758 2815 
Q 2500 3097 2075 3097 
Q 1594 3097 1305 2825 
Q 1016 2553 972 2059 
L 3022 2063 
z
" transform="scale(0.015625)"/>
       <path id="DejaVuSans-20" transform="scale(0.015625)"/>
       <path id="DejaVuSans-28" d="M 1984 4856 
Q 1566 4138 1362 3434 
Q 1159 2731 1159 2009 
Q 1159 1288 1364 580 
Q 1569 -128 1984 -844 
L 1484 -844 
Q 1016 -109 783 600 
Q 550 1309 550 2009 
Q 550 2706 781 3412 
Q 1013 4119 1484 4856 
L 1984 4856 
z
" transform="scale(0.015625)"/>
       <path id="DejaVuSans-73" d="M 2834 3397 
L 2834 2853 
Q 2591 2978 2328 3040 
Q 2066 3103 1784 3103 
Q 1356 3103 1142 2972 
Q 928 2841 928 2578 
Q 928 2378 1081 2264 
Q 1234 2150 1697 2047 
L 1894 2003 
Q 2506 1872 2764 1633 
Q 3022 1394 3022 966 
Q 3022 478 2636 193 
Q 2250 -91 1575 -91 
Q 1294 -91 989 -36 
Q 684 19 347 128 
L 347 722 
Q 666 556 975 473 
Q 1284 391 1588 391 
Q 1994 391 2212 530 
Q 2431 669 2431 922 
Q 2431 1156 2273 1281 
Q 2116 1406 1581 1522 
L 1381 1569 
Q 847 1681 609 1914 
Q 372 2147 372 2553 
Q 372 3047 722 3315 
Q 1072 3584 1716 3584 
Q 2034 3584 2315 3537 
Q 2597 3491 2834 3397 
z
" transform="scale(0.015625)"/>
       <path id="DejaVuSans-63" d="M 3122 3366 
L 3122 2828 
Q 2878 2963 2633 3030 
Q 2388 3097 2138 3097 
Q 1578 3097 1268 2742 
Q 959 2388 959 1747 
Q 959 1106 1268 751 
Q 1578 397 2138 397 
Q 2388 397 2633 464 
Q 2878 531 3122 666 
L 3122 134 
Q 2881 22 2623 -34 
Q 2366 -91 2075 -91 
Q 1284 -91 818 406 
Q 353 903 353 1747 
Q 353 2603 823 3093 
Q 1294 3584 2113 3584 
Q 2378 3584 2631 3529 
Q 2884 3475 3122 3366 
z
" transform="scale(0.015625)"/>
       <path id="DejaVuSans-6f" d="M 1959 3097 
Q 1497 3097 1228 2736 
Q 959 2375 959 1747 
Q 959 1119 1226 758 
Q 1494 397 1959 397 
Q 2419 397 2687 759 
Q 2956 1122 2956 1747 
Q 2956 2369 2687 2733 
Q 2419 3097 1959 3097 
z
M 1959 3584 
Q 2709 3584 3137 3096 
Q 3566 2609 3566 1747 
Q 3566 888 3137 398 
Q 2709 -91 1959 -91 
Q 1206 -91 779 398 
Q 353 888 353 1747 
Q 353 2609 779 3096 
Q 1206 3584 1959 3584 
z
" transform="scale(0.015625)"/>
       <path id="DejaVuSans-6e" d="M 3513 2113 
L 3513 0 
L 2938 0 
L 2938 2094 
Q 2938 2591 2744 2837 
Q 2550 3084 2163 3084 
Q 1697 3084 1428 2787 
Q 1159 2491 1159 1978 
L 1159 0 
L 581 0 
L 581 3500 
L 1159 3500 
L 1159 2956 
Q 1366 3272 1645 3428 
Q 1925 3584 2291 3584 
Q 2894 3584 3203 3211 
Q 3513 2838 3513 2113 
z
" transform="scale(0.015625)"/>
       <path id="DejaVuSans-64" d="M 2906 2969 
L 2906 4863 
L 3481 4863 
L 3481 0 
L 2906 0 
L 2906 525 
Q 2725 213 2448 61 
Q 2172 -91 1784 -91 
Q 1150 -91 751 415 
Q 353 922 353 1747 
Q 353 2572 751 3078 
Q 1150 3584 1784 3584 
Q 2172 3584 2448 3432 
Q 2725 3281 2906 2969 
z
M 947 1747 
Q 947 1113 1208 752 
Q 1469 391 1925 391 
Q 2381 391 2643 752 
Q 2906 1113 2906 1747 
Q 2906 2381 2643 2742 
Q 2381 3103 1925 3103 
Q 1469 3103 1208 2742 
Q 947 2381 947 1747 
z
" transform="scale(0.015625)"/>
       <path id="DejaVuSans-29" d="M 513 4856 
L 1013 4856 
Q 1481 4119 1714 3412 
Q 1947 2706 1947 2009 
Q 1947 1309 1714 600 
Q 1481 -109 1013 -844 
L 513 -844 
Q 928 -128 1133 580 
Q 1338 1288 1338 2009 
Q 1338 2731 1133 3434 
Q 928 4138 513 4856 
z
" transform="scale(0.015625)"/>
      </defs>
      <use xlink:href="#DejaVuSans-54"/>
      <use xlink:href="#DejaVuSans-69" x="57.958984"/>
      <use xlink:href="#DejaVuSans-6d" x="85.742188"/>
      <use xlink:href="#DejaVuSans-65" x="183.154297"/>
      <use xlink:href="#DejaVuSans-20" x="244.677734"/>
      <use xlink:href="#DejaVuSans-28" x="276.464844"/>
      <use xlink:href="#DejaVuSans-73" x="315.478516"/>
      <use xlink:href="#DejaVuSans-65" x="367.578125"/>
      <use xlink:href="#DejaVuSans-63" x="429.101562"/>
      <use xlink:href="#DejaVuSans-6f" x="484.082031"/>
      <use xlink:href="#DejaVuSans-6e" x="545.263672"/>
      <use xlink:href="#DejaVuSans-64" x="608.642578"/>
      <use xlink:href="#DejaVuSans-73" x="672.119141"/>
      <use xlink:href="#DejaVuSans-29" x="724.21875"/>
     </g>
    </g>
   </g>
   <g id="matplotlib.axis_2">
    <g id="ytick_1">
     <g id="line2d_19">
      <path d="M 57.6 307.584 
L 414.72 307.584 
" clip-path="url(#p32f5cbf3ac)" style="fill: none; stroke: #b0b0b0; stroke-width: 0.8; stroke-linecap: square"/>
     </g>
     <g id="line2d_20">
      <defs>
       <path id="mbdbf41f610" d="M 0 0 
L -3.5 0 
" style="stroke: #000000; stroke-width: 0.8"/>
      </defs>
      <g>
       <use xlink:href="#mbdbf41f610" x="57.6" y="307.584" style="stroke: #000000; stroke-width: 0.8"/>
      </g>
     </g>
     <g id="text_11">
      <!-- 0 -->
      <g transform="translate(44.2375 311.383219) scale(0.1 -0.1)">
       <use xlink:href="#DejaVuSans-30"/>
      </g>
     </g>
    </g>
    <g id="ytick_2">
     <g id="line2d_21">
      <path d="M 57.6 273.183283 
L 414.72 273.183283 
" clip-path="url(#p32f5cbf3ac)" style="fill: none; stroke: #b0b0b0; stroke-width: 0.8; stroke-linecap: square"/>
     </g>
     <g id="line2d_22">
      <g>
       <use xlink:href="#mbdbf41f610" x="57.6" y="273.183283" style="stroke: #000000; stroke-width: 0.8"/>
      </g>
     </g>
     <g id="text_12">
      <!-- 25 -->
      <g transform="translate(37.875 276.982502) scale(0.1 -0.1)">
       <use xlink:href="#DejaVuSans-32"/>
       <use xlink:href="#DejaVuSans-35" x="63.623047"/>
      </g>
     </g>
    </g>
    <g id="ytick_3">
     <g id="line2d_23">
      <path d="M 57.6 238.782566 
L 414.72 238.782566 
" clip-path="url(#p32f5cbf3ac)" style="fill: none; stroke: #b0b0b0; stroke-width: 0.8; stroke-linecap: square"/>
     </g>
     <g id="line2d_24">
      <g>
       <use xlink:href="#mbdbf41f610" x="57.6" y="238.782566" style="stroke: #000000; stroke-width: 0.8"/>
      </g>
     </g>
     <g id="text_13">
      <!-- 50 -->
      <g transform="translate(37.875 242.581785) scale(0.1 -0.1)">
       <use xlink:href="#DejaVuSans-35"/>
       <use xlink:href="#DejaVuSans-30" x="63.623047"/>
      </g>
     </g>
    </g>
    <g id="ytick_4">
     <g id="line2d_25">
      <path d="M 57.6 204.381849 
L 414.72 204.381849 
" clip-path="url(#p32f5cbf3ac)" style="fill: none; stroke: #b0b0b0; stroke-width: 0.8; stroke-linecap: square"/>
     </g>
     <g id="line2d_26">
      <g>
       <use xlink:href="#mbdbf41f610" x="57.6" y="204.381849" style="stroke: #000000; stroke-width: 0.8"/>
      </g>
     </g>
     <g id="text_14">
      <!-- 75 -->
      <g transform="translate(37.875 208.181068) scale(0.1 -0.1)">
       <use xlink:href="#DejaVuSans-37"/>
       <use xlink:href="#DejaVuSans-35" x="63.623047"/>
      </g>
     </g>
    </g>
    <g id="ytick_5">
     <g id="line2d_27">
      <path d="M 57.6 169.981132 
L 414.72 169.981132 
" clip-path="url(#p32f5cbf3ac)" style="fill: none; stroke: #b0b0b0; stroke-width: 0.8; stroke-linecap: square"/>
     </g>
     <g id="line2d_28">
      <g>
       <use xlink:href="#mbdbf41f610" x="57.6" y="169.981132" style="stroke: #000000; stroke-width: 0.8"/>
      </g>
     </g>
     <g id="text_15">
      <!-- 100 -->
      <g transform="translate(31.5125 173.780351) scale(0.1 -0.1)">
       <use xlink:href="#DejaVuSans-31"/>
       <use xlink:href="#DejaVuSans-30" x="63.623047"/>
       <use xlink:href="#DejaVuSans-30" x="127.246094"/>
      </g>
     </g>
    </g>
    <g id="ytick_6">
     <g id="line2d_29">
      <path d="M 57.6 135.580416 
L 414.72 135.580416 
" clip-path="url(#p32f5cbf3ac)" style="fill: none; stroke: #b0b0b0; stroke-width: 0.8; stroke-linecap: square"/>
     </g>
     <g id="line2d_30">
      <g>
       <use xlink:href="#mbdbf41f610" x="57.6" y="135.580416" style="stroke: #000000; stroke-width: 0.8"/>
      </g>
     </g>
     <g id="text_16">
      <!-- 125 -->
      <g transform="translate(31.5125 139.379634) scale(0.1 -0.1)">
       <use xlink:href="#DejaVuSans-31"/>
       <use xlink:href="#DejaVuSans-32" x="63.623047"/>
       <use xlink:href="#DejaVuSans-35" x="127.246094"/>
      </g>
     </g>
    </g>
    <g id="ytick_7">
     <g id="line2d_31">
      <path d="M 57.6 101.179699 
L 414.72 101.179699 
" clip-path="url(#p32f5cbf3ac)" style="fill: none; stroke: #b0b0b0; stroke-width: 0.8; stroke-linecap: square"/>
     </g>
     <g id="line2d_32">
      <g>
       <use xlink:href="#mbdbf41f610" x="57.6" y="101.179699" style="stroke: #000000; stroke-width: 0.8"/>
      </g>
     </g>
     <g id="text_17">
      <!-- 150 -->
      <g transform="translate(31.5125 104.978917) scale(0.1 -0.1)">
       <use xlink:href="#DejaVuSans-31"/>
       <use xlink:href="#DejaVuSans-35" x="63.623047"/>
       <use xlink:href="#DejaVuSans-30" x="127.246094"/>
      </g>
     </g>
    </g>
    <g id="ytick_8">
     <g id="line2d_33">
      <path d="M 57.6 66.778982 
L 414.72 66.778982 
" clip-path="url(#p32f5cbf3ac)" style="fill: none; stroke: #b0b0b0; stroke-width: 0.8; stroke-linecap: square"/>
     </g>
     <g id="line2d_34">
      <g>
       <use xlink:href="#mbdbf41f610" x="57.6" y="66.778982" style="stroke: #000000; stroke-width: 0.8"/>
      </g>
     </g>
     <g id="text_18">
      <!-- 175 -->
      <g transform="translate(31.5125 70.578201) scale(0.1 -0.1)">
       <use xlink:href="#DejaVuSans-31"/>
       <use xlink:href="#DejaVuSans-37" x="63.623047"/>
       <use xlink:href="#DejaVuSans-35" x="127.246094"/>
      </g>
     </g>
    </g>
    <g id="text_19">
     <!-- Measured Delay (seconds) -->
     <g transform="translate(25.432812 240.806125) rotate(-90) scale(0.1 -0.1)">
      <defs>
       <path id="DejaVuSans-4d" d="M 628 4666 
L 1569 4666 
L 2759 1491 
L 3956 4666 
L 4897 4666 
L 4897 0 
L 4281 0 
L 4281 4097 
L 3078 897 
L 2444 897 
L 1241 4097 
L 1241 0 
L 628 0 
L 628 4666 
z
" transform="scale(0.015625)"/>
       <path id="DejaVuSans-61" d="M 2194 1759 
Q 1497 1759 1228 1600 
Q 959 1441 959 1056 
Q 959 750 1161 570 
Q 1363 391 1709 391 
Q 2188 391 2477 730 
Q 2766 1069 2766 1631 
L 2766 1759 
L 2194 1759 
z
M 3341 1997 
L 3341 0 
L 2766 0 
L 2766 531 
Q 2569 213 2275 61 
Q 1981 -91 1556 -91 
Q 1019 -91 701 211 
Q 384 513 384 1019 
Q 384 1609 779 1909 
Q 1175 2209 1959 2209 
L 2766 2209 
L 2766 2266 
Q 2766 2663 2505 2880 
Q 2244 3097 1772 3097 
Q 1472 3097 1187 3025 
Q 903 2953 641 2809 
L 641 3341 
Q 956 3463 1253 3523 
Q 1550 3584 1831 3584 
Q 2591 3584 2966 3190 
Q 3341 2797 3341 1997 
z
" transform="scale(0.015625)"/>
       <path id="DejaVuSans-75" d="M 544 1381 
L 544 3500 
L 1119 3500 
L 1119 1403 
Q 1119 906 1312 657 
Q 1506 409 1894 409 
Q 2359 409 2629 706 
Q 2900 1003 2900 1516 
L 2900 3500 
L 3475 3500 
L 3475 0 
L 2900 0 
L 2900 538 
Q 2691 219 2414 64 
Q 2138 -91 1772 -91 
Q 1169 -91 856 284 
Q 544 659 544 1381 
z
M 1991 3584 
L 1991 3584 
z
" transform="scale(0.015625)"/>
       <path id="DejaVuSans-72" d="M 2631 2963 
Q 2534 3019 2420 3045 
Q 2306 3072 2169 3072 
Q 1681 3072 1420 2755 
Q 1159 2438 1159 1844 
L 1159 0 
L 581 0 
L 581 3500 
L 1159 3500 
L 1159 2956 
Q 1341 3275 1631 3429 
Q 1922 3584 2338 3584 
Q 2397 3584 2469 3576 
Q 2541 3569 2628 3553 
L 2631 2963 
z
" transform="scale(0.015625)"/>
       <path id="DejaVuSans-44" d="M 1259 4147 
L 1259 519 
L 2022 519 
Q 2988 519 3436 956 
Q 3884 1394 3884 2338 
Q 3884 3275 3436 3711 
Q 2988 4147 2022 4147 
L 1259 4147 
z
M 628 4666 
L 1925 4666 
Q 3281 4666 3915 4102 
Q 4550 3538 4550 2338 
Q 4550 1131 3912 565 
Q 3275 0 1925 0 
L 628 0 
L 628 4666 
z
" transform="scale(0.015625)"/>
       <path id="DejaVuSans-6c" d="M 603 4863 
L 1178 4863 
L 1178 0 
L 603 0 
L 603 4863 
z
" transform="scale(0.015625)"/>
       <path id="DejaVuSans-79" d="M 2059 -325 
Q 1816 -950 1584 -1140 
Q 1353 -1331 966 -1331 
L 506 -1331 
L 506 -850 
L 844 -850 
Q 1081 -850 1212 -737 
Q 1344 -625 1503 -206 
L 1606 56 
L 191 3500 
L 800 3500 
L 1894 763 
L 2988 3500 
L 3597 3500 
L 2059 -325 
z
" transform="scale(0.015625)"/>
      </defs>
      <use xlink:href="#DejaVuSans-4d"/>
      <use xlink:href="#DejaVuSans-65" x="86.279297"/>
      <use xlink:href="#DejaVuSans-61" x="147.802734"/>
      <use xlink:href="#DejaVuSans-73" x="209.082031"/>
      <use xlink:href="#DejaVuSans-75" x="261.181641"/>
      <use xlink:href="#DejaVuSans-72" x="324.560547"/>
      <use xlink:href="#DejaVuSans-65" x="363.423828"/>
      <use xlink:href="#DejaVuSans-64" x="424.947266"/>
      <use xlink:href="#DejaVuSans-20" x="488.423828"/>
      <use xlink:href="#DejaVuSans-44" x="520.210938"/>
      <use xlink:href="#DejaVuSans-65" x="597.212891"/>
      <use xlink:href="#DejaVuSans-6c" x="658.736328"/>
      <use xlink:href="#DejaVuSans-61" x="686.519531"/>
      <use xlink:href="#DejaVuSans-79" x="747.798828"/>
      <use xlink:href="#DejaVuSans-20" x="806.978516"/>
      <use xlink:href="#DejaVuSans-28" x="838.765625"/>
      <use xlink:href="#DejaVuSans-73" x="877.779297"/>
      <use xlink:href="#DejaVuSans-65" x="929.878906"/>
      <use xlink:href="#DejaVuSans-63" x="991.402344"/>
      <use xlink:href="#DejaVuSans-6f" x="1046.382812"/>
      <use xlink:href="#DejaVuSans-6e" x="1107.564453"/>
      <use xlink:href="#DejaVuSans-64" x="1170.943359"/>
      <use xlink:href="#DejaVuSans-73" x="1234.419922"/>
      <use xlink:href="#DejaVuSans-29" x="1286.519531"/>
     </g>
    </g>
   </g>
   <g id="line2d_35">
    <path d="M 60.127005 306.207834 
L 61.82843 304.912144 
L 63.529855 303.274183 
L 65.231281 302.648642 
L 66.932706 305.345472 
L 68.634131 302.205731 
L 70.335556 302.801513 
L 72.036982 297.582595 
L 73.738407 297.100223 
L 75.439832 301.480958 
L 77.141258 301.116261 
L 78.842683 294.007838 
L 80.544108 299.769724 
L 82.245533 294.772773 
L 83.946959 297.75462 
L 85.648384 287.458722 
L 87.349809 296.83996 
L 89.051234 291.489572 
L 90.75266 283.45715 
L 92.454085 289.937853 
L 94.15551 295.295939 
L 95.856936 282.735919 
L 97.558361 293.831929 
L 100.961211 277.375475 
L 102.662637 283.535068 
L 104.364062 292.721401 
L 106.065487 272.227975 
L 107.766913 280.729869 
L 109.468338 269.577311 
L 111.169763 291.327745 
L 112.871188 290.0306 
L 114.572614 276.801499 
L 116.274039 288.104087 
L 119.67689 285.43482 
L 121.378315 258.58876 
L 123.07974 283.48482 
L 124.781165 282.721701 
L 126.482591 268.681433 
L 128.184016 280.871832 
L 129.885441 266.254403 
L 131.586866 265.399837 
L 133.288292 280.1892 
L 134.989717 256.378395 
L 136.691142 277.884821 
L 138.392568 276.521728 
L 140.093993 259.060628 
L 141.795418 275.284466 
L 143.496843 249.781994 
L 145.198269 275.066066 
L 146.899694 247.365754 
L 148.601119 246.189632 
L 150.302545 244.839705 
L 152.00397 255.557942 
L 153.705395 272.692614 
L 155.40682 237.677281 
L 157.108246 271.94518 
L 158.809671 238.498649 
L 160.511096 269.71015 
L 162.212521 249.805893 
L 163.913947 234.716554 
L 165.615372 248.034371 
L 167.316797 268.835506 
L 169.018223 226.842258 
L 170.719648 267.407704 
L 172.421073 244.379977 
L 174.122498 265.816862 
L 175.823924 225.756622 
L 177.525349 264.517684 
L 179.226774 263.556618 
L 180.9282 239.105485 
L 182.629625 261.864209 
L 184.33105 261.305642 
L 186.032475 218.322966 
L 187.733901 234.751864 
L 189.435326 205.470306 
L 191.136751 259.268132 
L 192.838176 231.602476 
L 194.539602 213.088701 
L 196.241027 257.894837 
L 197.942452 228.654879 
L 199.643878 256.904556 
L 201.345303 226.097296 
L 203.046728 254.766555 
L 204.748153 198.158569 
L 206.449579 223.40273 
L 208.151004 222.449855 
L 209.852429 253.231749 
L 211.553855 253.105105 
L 213.25528 199.4806 
L 214.956705 251.306911 
L 216.65813 250.304705 
L 218.359556 215.301107 
L 220.060981 214.358145 
L 221.762406 185.458973 
L 223.463832 212.074414 
L 225.165257 211.091958 
L 226.866682 248.76236 
L 228.568107 188.258298 
L 230.269533 208.145046 
L 231.970958 247.563385 
L 233.672383 205.740326 
L 235.373808 245.643248 
L 237.075234 173.228756 
L 238.776659 244.617011 
L 240.478084 243.444078 
L 242.17951 177.572475 
L 243.880935 200.541011 
L 245.58236 241.270481 
L 247.283785 240.434644 
L 248.985211 172.310422 
L 250.686636 195.767185 
L 252.388061 238.753334 
L 254.089487 150.017403 
L 255.790912 237.601754 
L 257.492337 157.599402 
L 259.193762 235.252806 
L 260.895188 234.394755 
L 262.596613 189.065237 
L 264.298038 232.647512 
L 265.999463 231.591444 
L 267.700889 141.150055 
L 269.402314 230.643323 
L 271.103739 229.439342 
L 272.805165 181.857417 
L 274.50659 228.233199 
L 276.208015 143.619411 
L 277.90944 226.627894 
L 279.610866 177.680418 
L 281.312291 133.624392 
L 283.013716 224.261708 
L 284.715142 223.005544 
L 286.416567 173.908783 
L 288.117992 222.156969 
L 289.819417 171.758089 
L 291.520843 220.961088 
L 293.222268 220.040401 
L 294.923693 167.677068 
L 296.625119 218.503213 
L 298.326544 139.781242 
L 300.027969 165.006209 
L 301.729394 124.299346 
L 303.43082 162.884611 
L 305.132245 216.843755 
L 306.83367 113.866972 
L 308.535095 215.788176 
L 310.236521 214.430484 
L 311.937946 117.349706 
L 313.639371 156.886361 
L 315.340797 156.381995 
L 317.042222 99.769793 
L 318.743647 212.586134 
L 320.445072 127.069389 
L 322.146498 210.539586 
L 323.847923 152.28956 
L 325.549348 107.798463 
L 327.250774 209.138638 
L 328.952199 105.656542 
L 330.653624 208.433327 
L 332.355049 207.420942 
L 334.056475 206.120467 
L 335.7579 144.923292 
L 337.459325 144.297002 
L 339.16075 203.77179 
L 340.862176 113.313561 
L 342.563601 202.55385 
L 344.265026 84.446006 
L 345.966452 201.721172 
L 347.667877 109.543152 
L 349.369302 199.890095 
L 351.070727 88.390275 
L 352.772153 198.774818 
L 354.473578 197.717232 
L 356.175003 134.265699 
L 357.876429 102.502191 
L 359.577854 195.664493 
L 361.279279 66.15494 
L 362.980704 100.202514 
L 364.68213 194.599562 
L 366.383555 193.486763 
L 368.08498 128.602714 
L 369.786405 192.161984 
L 371.487831 191.025653 
L 373.189256 71.886009 
L 374.890681 188.487273 
L 376.592107 90.362836 
L 378.293532 187.309111 
L 379.994957 121.718679 
L 381.696382 185.747233 
L 383.397808 54.360431 
L 385.099233 184.767449 
L 386.800658 184.092097 
L 388.502084 115.537373 
L 390.203509 114.989272 
L 391.904934 181.61898 
L 393.606359 77.418017 
L 395.307785 180.871191 
L 397.00921 54.078468 
L 397.00921 54.078468 
" clip-path="url(#p32f5cbf3ac)" style="fill: none; stroke: #1f77b4; stroke-width: 1.5; stroke-linecap: square"/>
   </g>
   <g id="line2d_36">
    <path d="M 60.952414 306.207834 
L 62.653839 304.992483 
L 64.355265 303.09259 
L 66.05669 303.217537 
L 67.758115 302.717643 
L 69.45954 303.128927 
L 71.160966 303.707742 
L 72.862391 305.85914 
L 74.563816 298.982241 
L 76.265242 303.523278 
L 77.966667 298.320186 
L 79.668092 295.107182 
L 81.369517 291.049167 
L 83.070943 292.155377 
L 84.772368 302.258197 
L 86.473793 298.474028 
L 88.175219 301.528804 
L 89.876644 293.664722 
L 91.578069 289.823976 
L 93.279494 300.211757 
L 94.98092 285.033092 
L 96.682345 298.933607 
L 98.38377 293.283654 
L 100.085195 281.107792 
L 101.786621 275.867723 
L 103.488046 297.104287 
L 105.189471 290.180217 
L 106.890897 276.736364 
L 108.592322 273.314469 
L 110.293747 288.082674 
L 111.995172 271.935336 
L 113.696598 287.006846 
L 115.398023 295.392274 
L 117.099448 277.852994 
L 118.800874 280.854505 
L 120.502299 293.840283 
L 122.203724 282.772479 
L 123.905149 272.695293 
L 125.606575 275.917874 
L 127.308 281.795881 
L 129.009425 273.837452 
L 130.71085 272.861237 
L 132.412276 292.995254 
L 134.113701 279.316036 
L 135.815126 268.785353 
L 137.516552 277.214033 
L 139.217977 276.880929 
L 140.919402 248.536756 
L 142.620827 275.21074 
L 144.322253 291.583972 
L 146.023678 290.36571 
L 147.725103 260.231328 
L 149.426529 289.264741 
L 152.829379 286.678265 
L 154.530804 248.352601 
L 156.23223 254.043168 
L 157.933655 284.154294 
L 159.63508 233.651321 
L 161.336506 282.628056 
L 163.037931 249.88359 
L 164.739356 281.680375 
L 166.440781 240.841782 
L 168.142207 247.400535 
L 171.545057 229.366542 
L 173.246482 262.701255 
L 174.947908 280.315112 
L 176.649333 243.812149 
L 178.350758 278.45841 
L 180.052184 277.108253 
L 181.753609 218.392994 
L 183.455034 229.155558 
L 185.156459 276.009758 
L 186.857885 238.612405 
L 188.55931 255.325243 
L 190.260735 215.996247 
L 191.962161 275.572958 
L 193.663586 253.158228 
L 195.365011 221.836007 
L 197.066436 232.680147 
L 198.767862 202.058874 
L 200.469287 251.353553 
L 202.170712 229.196872 
L 203.872137 228.304967 
L 205.573563 273.57811 
L 207.274988 249.060741 
L 208.976413 202.563261 
L 210.677839 212.09248 
L 212.379264 272.083244 
L 214.080689 245.857615 
L 215.782114 270.365242 
L 217.48354 188.186436 
L 219.184965 243.686924 
L 220.88639 189.578383 
L 222.587816 205.073342 
L 224.289241 241.919816 
L 225.990666 240.932738 
L 227.692091 269.991981 
L 229.393517 189.177086 
L 231.094942 184.104815 
L 232.796367 268.512407 
L 234.497793 236.919634 
L 236.199218 196.979085 
L 237.900643 266.70675 
L 239.602068 233.637855 
L 241.303494 177.48375 
L 243.004919 265.484423 
L 244.706344 191.319215 
L 246.407769 263.562292 
L 248.109195 228.97256 
L 249.81062 262.92953 
L 251.512045 227.086635 
L 253.213471 261.812397 
L 254.914896 169.014008 
L 256.616321 223.895202 
L 258.317746 223.30632 
L 260.019172 197.647325 
L 261.720597 178.803139 
L 263.422022 260.489434 
L 265.123448 220.164552 
L 266.824873 160.35282 
L 268.526298 218.107169 
L 270.227723 158.446416 
L 271.929149 259.118872 
L 273.630574 171.939153 
L 275.331999 156.413341 
L 277.033424 158.613895 
L 278.73485 257.138311 
L 280.436275 214.588683 
L 282.1377 255.614367 
L 283.839126 166.596702 
L 285.540551 211.921175 
L 287.241976 185.983905 
L 288.943401 145.85132 
L 290.644827 162.864309 
L 292.346252 147.810783 
L 294.047677 253.920783 
L 295.749103 209.525508 
L 297.450528 253.667495 
L 299.151953 140.201337 
L 300.853378 180.488709 
L 302.554804 251.447134 
L 304.256229 250.818752 
L 305.957654 203.366039 
L 307.659079 135.714283 
L 309.360505 150.819018 
L 311.06193 201.892185 
L 312.763355 131.757142 
L 314.464781 172.94789 
L 316.166206 201.229059 
L 317.867631 124.013375 
L 319.569056 199.679728 
L 321.270482 198.397829 
L 322.971907 249.11009 
L 324.673332 167.122139 
L 326.374758 119.410971 
L 328.076183 195.808169 
L 329.777608 139.041125 
L 331.479033 248.088169 
L 333.180459 192.941001 
L 334.881884 116.662392 
L 336.583309 245.623925 
L 338.284735 159.770728 
L 339.98616 114.804993 
L 341.687585 244.947478 
L 343.38901 243.977642 
L 345.090436 110.784741 
L 346.791861 186.448615 
L 348.493286 153.85166 
L 350.194711 242.382504 
L 351.896137 184.063855 
L 353.597562 240.71083 
L 355.298987 106.989214 
L 357.000413 148.602452 
L 358.701838 121.442602 
L 360.403263 96.537769 
L 362.104688 238.724239 
L 363.806114 180.007071 
L 365.507539 95.861227 
L 367.208964 237.797108 
L 368.91039 98.380547 
L 370.611815 235.85127 
L 372.31324 235.511196 
L 374.014665 139.998034 
L 375.716091 174.906736 
L 377.417516 233.392739 
L 379.118941 232.656632 
L 380.820366 80.405288 
L 382.521792 170.902099 
L 384.223217 81.021129 
L 385.924642 230.760389 
L 387.626068 229.728457 
L 389.327493 130.710617 
L 391.028918 83.18056 
L 392.730343 228.692198 
L 394.431769 73.219783 
L 396.133194 127.649948 
L 397.834619 226.857617 
L 397.834619 226.857617 
" clip-path="url(#p32f5cbf3ac)" style="fill: none; stroke: #ff7f0e; stroke-width: 1.5; stroke-linecap: square"/>
   </g>
   <g id="line2d_37">
    <path d="M 61.777823 306.207834 
L 63.479249 305.072822 
L 65.180674 302.910997 
L 67.291286 303.455501 
L 68.992712 303.393674 
L 72.231217 303.455501 
L 73.932642 302.051572 
L 75.634068 303.635709 
L 77.335493 295.656075 
L 79.036918 306.174791 
L 80.738344 299.682461 
L 82.439769 304.047027 
L 84.141194 294.174941 
L 85.842619 290.772283 
L 87.544045 291.123262 
L 89.24547 293.512106 
L 90.946895 295.194317 
L 92.648321 300.601238 
L 94.349746 302.837419 
L 97.752596 286.936142 
L 99.454022 301.74333 
L 101.155447 282.814316 
L 102.856872 284.507085 
L 104.558298 282.121645 
L 106.259723 300.455774 
L 107.961148 294.87972 
L 109.662573 277.98442 
L 111.363999 298.538549 
L 113.065424 275.608683 
L 114.766849 274.316973 
L 116.468274 291.600593 
L 118.1697 275.425666 
L 119.871125 297.170598 
L 121.57255 270.708674 
L 123.273976 289.142293 
L 124.975401 273.997615 
L 126.676826 279.301887 
L 128.378251 287.528552 
L 130.079677 277.06945 
L 131.781102 281.740112 
L 133.482527 281.215308 
L 135.183953 285.9931 
L 136.885378 295.290592 
L 138.586803 270.828044 
L 140.288228 276.718646 
L 141.989654 295.026649 
L 143.691079 261.510331 
L 145.392504 282.46416 
L 147.093929 271.814252 
L 148.795355 270.516527 
L 150.49678 253.532193 
L 152.198205 269.381733 
L 153.899631 280.120422 
L 155.601056 279.719475 
L 157.302481 253.057095 
L 159.003906 278.531805 
L 160.705332 293.071092 
L 162.406757 262.163535 
L 164.108182 253.369686 
L 165.809608 274.650493 
L 167.511033 260.052255 
L 169.212458 249.703723 
L 170.913883 241.193756 
L 172.615309 258.391716 
L 174.316734 240.894359 
L 176.018159 246.84858 
L 177.719584 291.642182 
L 179.42101 290.502804 
L 181.122435 238.481948 
L 182.82386 255.07318 
L 184.525286 288.85135 
L 187.928136 286.347665 
L 189.629561 232.317831 
L 191.330987 232.398322 
L 193.032412 284.625751 
L 194.733837 235.181238 
L 196.435263 283.712424 
L 198.136688 228.162687 
L 199.838113 245.897535 
L 201.539538 282.290902 
L 203.240964 262.766408 
L 204.942389 225.801089 
L 206.643814 229.510134 
L 208.34524 242.503262 
L 210.046665 222.342316 
L 211.74809 240.718421 
L 213.449515 262.022605 
L 215.150941 238.69255 
L 216.852366 280.243007 
L 218.553791 220.157733 
L 220.255216 278.833983 
L 221.956642 277.496761 
L 223.658067 213.665901 
L 225.359492 255.332011 
L 227.060918 216.917385 
L 228.762343 276.537033 
L 230.463768 209.739256 
L 232.165193 211.521223 
L 233.866619 210.576832 
L 235.568044 252.624999 
L 237.269469 213.032172 
L 238.970895 275.881834 
L 240.67232 205.329135 
L 242.373745 201.946194 
L 244.07517 250.56181 
L 245.776596 207.982438 
L 247.478021 204.015454 
L 249.179446 207.096697 
L 250.880871 248.509178 
L 252.582297 200.661079 
L 254.283722 201.91737 
L 255.985147 247.317184 
L 257.686573 274.265591 
L 259.387998 197.951036 
L 261.089423 201.616818 
L 262.790848 245.354537 
L 264.492274 191.598672 
L 266.193699 243.185905 
L 267.895124 272.023291 
L 269.59655 216.786588 
L 271.297975 270.822316 
L 272.9994 189.326051 
L 274.700825 192.257745 
L 276.402251 239.230293 
L 278.103676 192.227113 
L 279.805101 237.747695 
L 281.506526 182.890234 
L 283.207952 182.196445 
L 284.909377 236.941882 
L 286.610802 188.004553 
L 288.312228 235.489023 
L 290.013653 269.574412 
L 291.715078 179.000861 
L 293.416503 232.765917 
L 295.117929 179.344744 
L 296.819354 268.043064 
L 298.520779 229.81855 
L 300.222205 173.326451 
L 301.92363 267.398622 
L 303.625055 178.880801 
L 305.32648 168.469262 
L 307.027906 226.481927 
L 308.729331 266.253145 
L 310.430756 224.771881 
L 312.132182 264.745978 
L 313.833607 196.539402 
L 315.535032 163.53439 
L 317.236457 165.48895 
L 318.937883 262.420807 
L 320.639308 158.293797 
L 322.340733 262.121136 
L 324.042158 157.368931 
L 325.743584 168.094106 
L 327.445009 155.099676 
L 329.146434 218.806137 
L 330.84786 191.048664 
L 332.549285 149.818604 
L 334.25071 216.868919 
L 335.952135 156.572155 
L 337.653561 260.136691 
L 339.354986 146.01733 
L 341.056411 146.216396 
L 342.757837 186.617579 
L 344.459262 145.748483 
L 346.160687 152.938673 
L 347.862112 214.651447 
L 349.563538 258.768863 
L 351.264963 183.383068 
L 352.966388 154.768594 
L 354.667813 212.292388 
L 356.369239 134.446035 
L 358.070664 257.174049 
L 359.772089 132.597536 
L 361.473515 256.264162 
L 363.17494 141.788726 
L 364.876365 208.017563 
L 366.57779 176.484037 
L 368.279216 127.61637 
L 369.980641 129.592267 
L 371.682066 124.920721 
L 373.383492 206.33486 
L 375.084917 173.10955 
L 376.786342 205.386891 
L 378.487767 254.411801 
L 380.189193 202.776029 
L 381.890618 130.48525 
L 383.592043 119.001117 
L 385.293469 252.65584 
L 386.994894 165.923752 
L 388.696319 126.353353 
L 390.397744 251.389342 
L 392.09917 251.134782 
L 393.800595 196.139481 
L 395.50202 121.377868 
L 397.203445 195.278801 
L 397.203445 195.278801 
" clip-path="url(#p32f5cbf3ac)" style="fill: none; stroke: #2ca02c; stroke-width: 1.5; stroke-linecap: square"/>
   </g>
   <g id="line2d_38">
    <path d="M 62.603233 306.207834 
L 64.304658 305.153161 
L 66.006083 302.729404 
L 68.82012 303.455501 
L 75.406694 303.455501 
L 77.108119 297.184353 
L 78.809545 304.61313 
L 80.51097 299.290215 
L 82.212395 298.42024 
L 83.913821 300.718162 
L 85.615246 306.163868 
L 87.316671 291.589982 
L 89.018096 304.244203 
L 90.719522 291.140601 
L 92.420947 293.363617 
L 94.122372 293.408374 
L 95.823798 296.109999 
L 97.525223 291.06189 
L 99.226648 291.951234 
L 100.928073 296.911348 
L 102.629499 299.649817 
L 104.330924 303.090068 
L 106.032349 285.101237 
L 107.733774 283.713022 
L 109.4352 282.838754 
L 111.136625 301.631282 
L 112.83805 280.199122 
L 116.240901 282.594732 
L 117.942326 296.149212 
L 119.643751 300.373217 
L 121.345177 283.901398 
L 123.046602 282.758713 
L 124.748027 299.192946 
L 126.449453 283.305353 
L 128.150878 285.335983 
L 129.852303 291.318367 
L 131.553728 284.552293 
L 133.255154 283.869092 
L 134.956579 278.691721 
L 136.658004 296.910336 
L 138.359429 288.49931 
L 140.060855 279.216627 
L 141.76228 276.45782 
L 143.463705 287.723683 
L 145.165131 282.299144 
L 146.866556 276.452006 
L 148.567981 280.682053 
L 150.269406 275.203217 
L 151.970832 286.135091 
L 153.672257 277.897238 
L 155.373682 271.691296 
L 157.075108 296.238366 
L 158.776533 274.568779 
L 160.477958 273.297156 
L 162.179383 284.181895 
L 163.880809 263.646422 
L 165.582234 294.510413 
L 167.283659 269.949392 
L 168.985085 264.215028 
L 170.68651 268.5813 
L 172.387935 258.708304 
L 174.08936 280.598234 
L 175.790786 257.647553 
L 177.492211 279.146286 
L 179.193636 264.390231 
L 180.895061 278.480079 
L 182.596487 257.832097 
L 184.297912 254.957432 
L 185.999337 276.515729 
L 187.700763 253.097792 
L 189.402188 292.820356 
L 191.103613 258.048093 
L 192.805038 254.857387 
L 194.506464 250.702763 
L 196.207889 252.478396 
L 197.909314 250.053999 
L 199.61074 257.751464 
L 203.01359 248.378097 
L 204.715015 248.760545 
L 206.416441 247.960034 
L 208.117866 246.925895 
L 209.819291 255.608148 
L 211.520716 291.373819 
L 213.222142 290.313324 
L 214.923567 248.023086 
L 216.624992 249.087604 
L 218.326418 289.487415 
L 220.027843 288.222515 
L 221.729268 241.50491 
L 223.430693 285.690492 
L 225.132119 247.871717 
L 226.833544 238.408439 
L 228.534969 284.770635 
L 230.236395 265.257045 
L 231.93782 243.657225 
L 233.639245 283.094189 
L 235.34067 236.43971 
L 237.042096 240.497387 
L 238.743521 282.574855 
L 240.444946 228.159935 
L 242.146372 229.533941 
L 243.847797 228.373581 
L 245.549222 230.175211 
L 247.250647 261.513251 
L 248.952073 230.96791 
L 250.653498 226.639561 
L 252.354923 226.173185 
L 254.056348 259.931278 
L 255.757774 227.662669 
L 257.459199 281.220357 
L 259.160624 225.581816 
L 260.86205 227.16315 
L 262.563475 278.882982 
L 264.2649 277.558696 
L 265.966325 221.685346 
L 267.667751 222.829593 
L 269.369176 254.9459 
L 271.070601 222.450423 
L 272.772027 276.737735 
L 274.473452 213.833065 
L 276.174877 215.402094 
L 277.876302 215.509408 
L 279.577728 215.086292 
L 281.279153 251.736305 
L 282.980578 215.822107 
L 284.682003 217.624241 
L 286.383429 275.864136 
L 288.084854 207.31257 
L 289.786279 249.458138 
L 291.487705 206.097828 
L 293.18913 224.591048 
L 294.890555 204.078909 
L 296.59198 247.868814 
L 298.293406 203.426979 
L 299.994831 202.86948 
L 301.696256 203.720448 
L 303.397682 211.956828 
L 305.099107 245.710626 
L 306.800532 245.112498 
L 308.501957 203.474371 
L 310.203383 195.818052 
L 311.904808 273.250469 
L 313.606233 195.597964 
L 315.307658 194.297147 
L 317.009084 242.590406 
L 318.710509 192.107307 
L 320.411934 241.530962 
L 322.11336 273.012794 
L 323.814785 197.253699 
L 325.51621 190.434997 
L 327.217635 270.952817 
L 328.919061 188.239047 
L 330.620486 187.842179 
L 332.321911 236.328458 
L 334.023337 198.776242 
L 335.724762 235.308665 
L 337.426187 209.520382 
L 339.127612 234.429915 
L 340.829038 186.973866 
L 342.530463 233.25215 
L 344.231888 189.332261 
L 345.933314 189.785856 
L 347.634739 189.114666 
L 349.336164 189.671551 
L 351.037589 270.206297 
L 352.739015 229.720671 
L 354.44044 186.239123 
L 356.141865 228.357963 
L 357.84329 185.593495 
L 359.544716 268.623176 
L 361.246141 181.763942 
L 362.947566 199.906017 
L 364.648992 183.033446 
L 366.350417 179.580676 
L 368.051842 266.387892 
L 369.753267 177.193527 
L 371.454693 177.162679 
L 373.156118 180.737369 
L 374.857543 197.208637 
L 376.558969 265.319266 
L 378.260394 222.697019 
L 379.961819 264.227062 
L 381.663244 175.554776 
L 383.36467 174.020872 
L 385.066095 220.114061 
L 386.76752 262.961538 
L 388.468945 176.162972 
L 390.170371 170.0635 
L 391.871796 262.103301 
L 393.573221 186.933165 
L 395.274647 166.478397 
L 396.976072 171.393988 
L 396.976072 171.393988 
" clip-path="url(#p32f5cbf3ac)" style="fill: none; stroke: #d62728; stroke-width: 1.5; stroke-linecap: square"/>
   </g>
   <g id="line2d_39">
    <path d="M 63.428642 306.207834 
L 65.130067 305.2335 
L 66.831493 302.547811 
L 70.348953 303.455501 
L 73.057249 303.455501 
L 77.822685 297.950836 
L 79.52411 302.693707 
L 81.225536 301.271178 
L 82.926961 304.828758 
L 84.628386 295.773973 
L 86.329812 297.77566 
L 88.031237 300.99207 
L 89.732662 294.524233 
L 91.434087 297.64701 
L 93.135513 305.391152 
L 94.836938 296.670935 
L 96.538363 303.679584 
L 98.239788 294.425844 
L 99.941214 297.639915 
L 101.642639 292.823149 
L 103.344064 293.129473 
L 105.04549 290.055859 
L 106.746915 298.297594 
L 108.44834 287.931003 
L 110.149765 300.68866 
L 111.851191 285.319477 
L 113.552616 287.103141 
L 115.254041 302.580923 
L 116.955467 287.625975 
L 118.656892 293.043386 
L 120.358317 291.959038 
L 122.059742 294.70638 
L 123.761168 300.757441 
L 125.462593 299.408968 
L 127.164018 293.411434 
L 128.865443 295.921049 
L 130.566869 292.08456 
L 132.268294 294.035025 
L 133.969719 299.528866 
L 135.671145 297.15449 
L 137.37257 290.971502 
L 139.073995 299.085549 
L 140.77542 286.490972 
L 142.476846 290.267782 
L 144.178271 290.77084 
L 145.879696 293.974676 
L 147.581122 291.728584 
L 149.282547 287.41296 
L 150.983972 290.395234 
L 152.685397 297.264308 
L 154.386823 291.285107 
L 156.088248 280.452931 
L 157.789673 284.947768 
L 159.491098 285.19418 
L 161.192524 284.817685 
L 162.893949 283.572162 
L 164.595374 289.643374 
L 166.2968 274.624291 
L 167.998225 275.362395 
L 169.69965 280.763487 
L 171.401075 279.721162 
L 173.102501 279.741386 
L 174.803926 289.265922 
L 176.505351 273.71978 
L 178.206777 296.424346 
L 179.908202 272.083245 
L 181.609627 276.222585 
L 183.311052 276.690789 
L 185.012478 277.583107 
L 186.713903 270.465487 
L 188.415328 294.608411 
L 190.116754 284.442339 
L 191.818179 270.276979 
L 193.519604 283.315418 
L 195.221029 266.21446 
L 196.922455 267.903662 
L 198.62388 281.794644 
L 200.325305 267.349701 
L 202.02673 268.087132 
L 203.728156 280.371229 
L 205.429581 269.300156 
L 207.131006 262.564982 
L 208.832432 261.616316 
L 210.533857 268.491919 
L 212.235282 265.848314 
L 213.936707 270.061082 
L 215.638133 267.414516 
L 217.339558 293.183855 
L 219.040983 261.633718 
L 220.742409 261.207346 
L 222.443834 265.020929 
L 224.145259 267.614694 
L 225.846684 260.516804 
L 227.54811 266.474665 
L 229.249535 258.034332 
L 230.95096 264.932918 
L 232.652385 259.254349 
L 234.353811 258.618865 
L 236.055236 260.933236 
L 237.756661 257.003873 
L 239.458087 260.929771 
L 241.159512 260.392748 
L 242.860937 262.713423 
L 244.562362 291.71969 
L 246.263788 290.738079 
L 247.965213 275.24206 
L 249.666638 255.52216 
L 251.368064 252.93096 
L 253.069489 289.361685 
L 256.472339 287.023581 
L 258.173765 251.792362 
L 259.87519 253.382442 
L 261.576615 248.35611 
L 263.27804 285.529754 
L 264.979466 247.45823 
L 266.680891 247.273343 
L 268.382316 244.780341 
L 270.083742 283.090189 
L 271.785167 247.505098 
L 273.486592 267.122245 
L 275.188017 241.19787 
L 276.889443 282.097014 
L 278.590868 245.973685 
L 280.292293 237.986208 
L 281.993719 239.235338 
L 283.695144 263.768751 
L 285.396569 237.506442 
L 287.097994 238.914159 
L 288.79942 236.260315 
L 290.500845 238.049248 
L 292.20227 241.358621 
L 293.903696 235.391205 
L 295.605121 244.049527 
L 297.306546 262.009121 
L 299.007971 281.435914 
L 300.709397 245.394001 
L 302.410822 229.213833 
L 304.112247 279.546216 
L 305.813672 278.234866 
L 307.515098 229.875504 
L 309.216523 229.194609 
L 310.917948 229.042531 
L 312.619374 232.55076 
L 314.320799 256.277092 
L 316.022224 234.149269 
L 317.723649 276.176643 
L 319.425075 237.785277 
L 321.1265 237.894009 
L 322.827925 237.32025 
L 324.529351 253.773391 
L 326.230776 235.449241 
L 327.932201 236.489354 
L 329.633626 235.982898 
L 331.335052 253.162764 
L 333.036477 235.863878 
L 334.737902 275.084644 
L 336.439327 231.764951 
L 338.140753 235.415873 
L 339.842178 231.443918 
L 341.543603 230.524024 
L 343.245029 249.433008 
L 344.946454 249.029355 
L 346.647879 234.123826 
L 348.349304 226.701385 
L 350.05073 231.513755 
L 351.752155 232.259664 
L 353.45358 230.686292 
L 355.155006 247.940783 
L 356.856431 229.867663 
L 358.557856 229.170363 
L 360.259281 245.928463 
L 361.960707 231.643882 
L 363.662132 274.225611 
L 365.363557 226.15062 
L 367.064983 231.394064 
L 368.766408 228.778716 
L 370.467833 243.209413 
L 372.169258 221.243498 
L 375.572109 241.246657 
L 377.273534 273.240502 
L 378.974959 230.430389 
L 380.676385 239.460205 
L 382.37781 271.697553 
L 384.079235 225.566912 
L 385.780661 225.583084 
L 387.482086 235.923956 
L 389.183511 224.976251 
L 390.884936 226.874242 
L 392.586362 220.218722 
L 394.287787 217.75142 
L 395.989212 234.949679 
L 397.690638 221.272883 
L 397.690638 221.272883 
" clip-path="url(#p32f5cbf3ac)" style="fill: none; stroke: #9467bd; stroke-width: 1.5; stroke-linecap: square"/>
   </g>
   <g id="line2d_40">
    <path d="M 64.254051 306.207834 
L 65.955477 303.742246 
L 67.656902 303.93781 
L 71.877786 303.455501 
L 75.127742 303.455501 
L 79.484989 297.950836 
L 81.757648 303.455501 
L 83.459073 302.023672 
L 85.160499 297.353466 
L 86.861924 300.030696 
L 88.563349 303.815916 
L 90.264775 296.679395 
L 91.9662 301.413536 
L 93.667625 299.325905 
L 95.36905 300.081055 
L 97.070476 299.313385 
L 98.771901 306.142023 
L 100.473326 297.940563 
L 102.174751 304.638554 
L 103.876177 299.317391 
L 107.279027 292.41817 
L 108.980453 291.794782 
L 110.681878 290.587391 
L 112.383303 299.8314 
L 114.084728 291.626965 
L 115.786154 294.180806 
L 117.487579 301.875062 
L 119.189004 299.580877 
L 121.063029 306.207834 
L 122.764454 297.039245 
L 124.46588 300.611262 
L 128.565951 306.207834 
L 130.267377 299.319066 
L 131.968802 303.488843 
L 133.670227 298.277229 
L 135.371652 299.853752 
L 137.073078 299.516964 
L 138.774503 299.41841 
L 140.475928 305.00875 
L 142.177354 294.592186 
L 143.878779 301.058676 
L 145.580204 298.023535 
L 147.281629 303.926358 
L 148.983055 297.526382 
L 150.68448 297.0746 
L 152.385905 300.270162 
L 154.087331 297.850057 
L 155.788756 291.199418 
L 157.490181 296.800449 
L 159.191606 291.360399 
L 160.893032 298.418708 
L 162.594457 302.566486 
L 164.295882 293.311241 
L 165.997307 289.988284 
L 167.698733 291.758624 
L 169.400158 290.539203 
L 171.101583 284.265157 
L 172.803009 291.021673 
L 174.504434 295.347805 
L 176.205859 288.670059 
L 177.907284 288.969535 
L 179.60871 283.670047 
L 181.310135 283.632646 
L 183.01156 288.87506 
L 184.712986 285.544216 
L 186.414411 295.170068 
L 188.115836 286.960052 
L 189.817261 288.30604 
L 191.518687 283.195041 
L 193.220112 301.558531 
L 194.921537 282.015537 
L 196.622963 282.745232 
L 200.025813 285.167042 
L 201.727238 291.858621 
L 203.428664 280.742108 
L 205.130089 299.654616 
L 206.831514 289.680698 
L 208.532939 277.126856 
L 210.234365 281.668967 
L 211.93579 284.276758 
L 213.637215 287.305358 
L 215.338641 280.003609 
L 217.040066 285.334136 
L 218.741491 286.422877 
L 222.144342 276.046916 
L 223.845767 275.810476 
L 225.547192 280.661981 
L 227.248618 277.183471 
L 228.950043 282.673677 
L 230.651468 274.754916 
L 232.352893 281.856053 
L 234.054319 276.769348 
L 235.755744 280.556368 
L 237.457169 274.905944 
L 239.158594 298.495559 
L 240.86002 276.582367 
L 242.561445 272.142336 
L 244.26287 277.128621 
L 245.964296 276.759398 
L 247.665721 279.819414 
L 249.367146 274.960602 
L 251.068571 275.042779 
L 252.769997 277.447164 
L 254.471422 275.250102 
L 256.172847 278.254437 
L 257.874273 274.723058 
L 259.575698 274.776399 
L 261.277123 272.060002 
L 262.978548 272.989946 
L 264.679974 275.880122 
L 266.381399 271.337597 
L 268.082824 283.295138 
L 269.784249 276.519279 
L 271.485675 297.013768 
L 273.1871 296.11104 
L 274.888525 267.607645 
L 276.589951 267.45941 
L 278.291376 267.890497 
L 279.992801 268.047847 
L 281.694226 294.184162 
L 283.395652 292.974826 
L 285.097077 291.928849 
L 286.798502 264.808308 
L 288.499928 263.545097 
L 290.201353 263.012394 
L 291.902778 266.302703 
L 293.604203 289.861049 
L 295.305629 264.632016 
L 297.007054 264.090148 
L 298.708479 289.410423 
L 300.409905 272.175331 
L 302.11133 264.578088 
L 303.812755 260.054774 
L 305.51418 268.393103 
L 307.215606 287.943408 
L 308.917031 261.787797 
L 310.618456 269.802372 
L 312.319881 264.256419 
L 314.021307 270.546069 
L 315.722732 270.951754 
L 317.424157 270.538447 
L 319.125583 274.020549 
L 320.827008 268.843649 
L 322.528433 270.36699 
L 324.229858 270.034448 
L 327.632709 270.442035 
L 329.334134 275.398285 
L 331.03556 268.990964 
L 332.736985 270.730047 
L 334.43841 286.599676 
L 336.139835 265.41024 
L 337.841261 266.051983 
L 339.542686 285.157656 
L 341.244111 283.859242 
L 342.945536 271.293021 
L 344.646962 267.803562 
L 346.348387 266.597917 
L 348.049812 267.768214 
L 349.751238 271.661092 
L 351.452663 264.779345 
L 353.154088 265.72343 
L 354.855513 281.939786 
L 356.556939 263.785846 
L 358.258364 268.680509 
L 359.959789 270.487854 
L 361.661215 262.639006 
L 363.36264 268.902647 
L 365.064065 260.603341 
L 366.76549 266.454288 
L 368.466916 263.591076 
L 370.168341 271.999653 
L 371.869766 269.025208 
L 373.571192 271.786514 
L 375.272617 280.629387 
L 376.974042 268.600346 
L 378.675467 266.341849 
L 380.376893 266.63646 
L 382.078318 267.834702 
L 383.779743 270.174888 
L 385.481168 262.676078 
L 387.182594 267.63544 
L 388.884019 268.645198 
L 390.585444 257.238464 
L 392.28687 258.660157 
L 393.988295 267.327073 
L 395.68972 260.638602 
L 397.391145 255.921881 
L 397.391145 255.921881 
" clip-path="url(#p32f5cbf3ac)" style="fill: none; stroke: #8c564b; stroke-width: 1.5; stroke-linecap: square"/>
   </g>
   <g id="line2d_41">
    <path d="M 65.079461 306.207834 
L 66.780886 303.560653 
L 68.482311 304.018149 
L 73.40662 303.455501 
L 77.198234 303.455501 
L 81.147292 297.950836 
L 84.933125 303.455501 
L 86.63455 302.014372 
L 88.335976 296.795137 
L 90.037401 300.14791 
L 91.738826 304.793338 
L 93.440252 296.696735 
L 95.141677 302.449237 
L 97.975717 299.327002 
L 99.677143 300.437349 
L 101.378568 299.771072 
L 103.917272 299.327002 
L 105.618697 305.913976 
L 107.320122 298.930239 
L 109.021547 304.618605 
L 112.424398 292.425533 
L 114.125823 291.927586 
L 115.827248 290.748301 
L 117.528674 293.795842 
L 119.230099 300.386288 
L 120.931524 295.628633 
L 122.636579 304.831667 
L 126.416875 300.703169 
L 130.324983 297.950836 
L 132.026408 305.666127 
L 134.059617 300.703169 
L 140.110011 306.207834 
L 141.811436 298.400276 
L 143.512861 303.494354 
L 145.214287 297.643476 
L 146.915712 299.712091 
L 148.617137 299.54851 
L 150.318562 299.662868 
L 152.019988 295.866978 
L 153.721413 305.038241 
L 155.422838 302.264526 
L 157.124263 298.952867 
L 158.825689 300.207559 
L 160.527114 299.909818 
L 162.228539 303.316774 
L 163.929965 295.119482 
L 165.63139 301.115255 
L 167.332815 298.521137 
L 169.03424 299.1313 
L 170.735666 293.013912 
L 174.138516 300.101915 
L 175.839942 295.977909 
L 177.541367 290.469583 
L 179.242792 302.418271 
L 180.944217 293.24917 
L 182.645643 292.055851 
L 184.347068 294.453437 
L 186.048493 293.544593 
L 187.749918 294.123319 
L 189.451344 296.977872 
L 191.152769 286.793893 
L 192.854194 286.979596 
L 194.55562 293.325084 
L 196.257045 289.668437 
L 197.95847 293.154951 
L 199.659895 294.954608 
L 201.361321 289.221114 
L 203.062746 289.679732 
L 204.764171 295.623822 
L 206.465597 289.384352 
L 208.167022 291.085657 
L 209.868447 290.716783 
L 211.569872 291.292444 
L 213.271298 288.563033 
L 214.972723 301.242324 
L 216.674148 292.715472 
L 218.375573 295.200538 
L 220.076999 296.0997 
L 221.778424 293.235175 
L 223.479849 290.084539 
L 225.181275 295.621851 
L 226.8827 289.137808 
L 228.584125 299.250427 
L 230.28555 292.40474 
L 231.986976 293.904276 
L 233.688401 287.873931 
L 235.389826 283.587184 
L 237.091252 289.476611 
L 238.792677 285.647687 
L 240.494102 284.649079 
L 242.195527 290.906237 
L 243.896953 287.457925 
L 245.598378 290.411019 
L 247.299803 285.742631 
L 249.001229 289.353396 
L 250.702654 288.157133 
L 252.404079 283.206435 
L 254.105504 289.253105 
L 255.80693 289.051684 
L 257.508355 292.851041 
L 259.20978 287.411764 
L 260.911205 287.736976 
L 262.612631 290.771431 
L 264.314056 288.437529 
L 266.015481 292.171925 
L 267.716907 298.35687 
L 269.418332 286.905292 
L 271.119757 285.633099 
L 272.821182 285.820833 
L 274.522608 285.571342 
L 276.224033 285.478307 
L 277.925458 287.796523 
L 279.626884 286.401472 
L 281.328309 286.45787 
L 283.029734 289.230221 
L 284.731159 294.153994 
L 286.432585 284.438086 
L 288.13401 284.850999 
L 289.835435 286.116975 
L 291.53686 284.872567 
L 293.238286 284.480418 
L 294.939711 288.54845 
L 296.641136 288.43402 
L 298.342562 288.031179 
L 300.043987 292.040514 
L 301.745412 286.992652 
L 303.446837 296.54654 
L 305.148263 296.857452 
L 306.849688 296.033608 
L 308.551113 288.326498 
L 310.252539 291.445926 
L 311.953964 291.665234 
L 313.655389 296.308302 
L 315.356814 295.126749 
L 317.05824 294.13578 
L 318.759665 291.02603 
L 320.46109 296.998124 
L 322.162516 292.352353 
L 323.863941 293.05499 
L 325.565366 297.160408 
L 327.266791 291.426109 
L 328.968217 291.283549 
L 330.669642 294.34187 
L 332.371067 291.91409 
L 334.072492 296.595581 
L 335.773918 290.379433 
L 339.176768 291.313628 
L 340.878194 297.325258 
L 342.579619 290.079387 
L 344.281044 292.337656 
L 345.982469 287.96592 
L 347.683895 288.943957 
L 349.38532 296.032906 
L 351.086745 297.122545 
L 352.788171 293.479628 
L 354.489596 295.074313 
L 356.191021 299.845342 
L 357.892446 292.045975 
L 359.593872 300.073332 
L 361.295297 292.000717 
L 362.996722 291.574908 
L 364.698147 299.07899 
L 366.399573 297.793511 
L 368.100998 294.762629 
L 369.802423 297.100536 
L 371.503849 288.172885 
L 373.205274 295.709804 
L 374.906699 286.256618 
L 376.608124 293.312062 
L 378.30955 298.764879 
L 380.010975 288.824957 
L 381.7124 298.864301 
L 383.413826 295.623454 
L 385.115251 299.074316 
L 386.816676 297.191825 
L 388.518101 294.78625 
L 390.219527 295.359301 
L 391.920952 292.651144 
L 395.323802 298.570114 
L 397.025228 290.05084 
L 397.025228 290.05084 
" clip-path="url(#p32f5cbf3ac)" style="fill: none; stroke: #e377c2; stroke-width: 1.5; stroke-linecap: square"/>
   </g>
   <g id="line2d_42">
    <path d="M 65.810182 304.831667 
L 67.511607 304.908384 
L 69.213032 304.175067 
L 74.935453 303.455501 
L 79.268727 303.455501 
L 82.809595 297.950836 
L 88.108602 303.455501 
L 89.810027 297.612836 
L 91.511453 300.629043 
L 93.212878 300.265123 
L 94.914303 298.090103 
L 96.615728 304.394731 
L 98.353552 303.455501 
L 102.285167 299.327002 
L 104.097104 300.703169 
L 105.798529 300.138285 
L 109.075514 299.327002 
L 110.77694 300.642738 
L 112.478365 305.67552 
L 114.17979 295.174544 
L 115.881215 304.588246 
L 117.582641 297.952039 
L 119.284066 292.04998 
L 120.985491 290.898801 
L 122.686916 294.578281 
L 124.388342 302.306794 
L 126.089767 297.06605 
L 131.441349 304.831667 
L 135.032432 300.703169 
L 139.012671 297.950836 
L 141.650174 306.207834 
L 143.766994 300.703169 
L 151.07356 299.327002 
L 152.774985 305.301293 
L 154.476411 298.855239 
L 156.177836 302.593324 
L 157.879261 300.039917 
L 159.580687 300.049543 
L 161.282112 300.376814 
L 162.983537 296.235229 
L 165.283695 304.831667 
L 166.98512 305.052995 
L 168.686545 299.867461 
L 170.387971 301.49797 
L 172.089396 301.354271 
L 173.790821 305.44451 
L 175.492246 296.272752 
L 177.193672 301.929537 
L 178.895097 301.94561 
L 180.596522 301.447413 
L 182.297948 294.652688 
L 183.999373 298.785992 
L 185.700798 300.005869 
L 187.402223 301.770386 
L 189.103649 292.531186 
L 190.805074 297.477036 
L 192.506499 296.309818 
L 194.207925 303.631347 
L 195.90935 297.870464 
L 197.610775 294.031087 
L 199.3122 297.886337 
L 201.013626 294.276303 
L 202.715051 299.96923 
L 204.416476 290.311808 
L 206.117901 297.76037 
L 207.819327 293.777921 
L 209.520752 297.959084 
L 211.222177 295.23245 
L 212.923603 298.836381 
L 214.625028 294.577131 
L 216.326453 296.008734 
L 218.027878 300.190924 
L 219.729304 296.77363 
L 221.430729 296.548635 
L 223.132154 297.403108 
L 224.83358 294.480357 
L 226.535005 300.995181 
L 228.23643 304.031832 
L 230.194621 306.207834 
L 231.896047 303.672333 
L 233.597472 300.595166 
L 235.298897 297.191015 
L 237.000322 303.715947 
L 238.701748 296.502187 
L 240.403173 302.005004 
L 242.104598 298.596116 
L 243.806023 302.539306 
L 245.507449 304.127956 
L 247.208874 291.141495 
L 248.910299 295.265536 
L 250.611725 296.692816 
L 252.31315 292.944816 
L 254.014575 300.292429 
L 255.716 296.548077 
L 257.417426 300.119617 
L 259.118851 294.980891 
L 260.820276 299.304056 
L 262.521702 298.133474 
L 264.223127 292.672109 
L 265.924552 299.779164 
L 268.143493 299.327002 
L 271.416667 297.950836 
L 273.118093 301.218519 
L 274.819518 297.143053 
L 276.650041 300.703169 
L 278.699648 297.950836 
L 280.666285 299.327002 
L 282.36771 300.824775 
L 284.069135 296.693614 
L 285.77056 297.104743 
L 287.471986 305.337802 
L 289.173411 295.640158 
L 290.874836 295.730407 
L 292.576261 298.576373 
L 294.277687 297.178604 
L 295.979112 297.439634 
L 297.680537 300.804611 
L 299.381963 297.097065 
L 301.083388 297.765541 
L 302.784813 303.876299 
L 304.587731 297.950836 
L 306.289156 296.72523 
L 307.990581 296.473636 
L 310.453951 300.703169 
L 313.938329 299.327002 
L 315.639754 299.063188 
L 319.436564 297.950836 
L 321.13799 300.771188 
L 325.696194 300.703169 
L 327.39762 305.931594 
L 329.099045 302.627633 
L 330.80047 303.810604 
L 332.501896 300.336719 
L 334.303182 300.703169 
L 336.004607 306.206108 
L 337.706033 303.51101 
L 339.407458 303.676309 
L 341.108883 302.740348 
L 344.755216 306.207834 
L 346.941076 300.703169 
L 348.642502 301.702758 
L 350.817999 306.207834 
L 352.519424 299.850925 
L 354.22085 299.884574 
L 355.922275 303.576374 
L 357.988677 300.703169 
L 359.709004 300.703169 
L 361.410429 304.858705 
L 363.955103 299.327002 
L 365.656528 300.105965 
L 370.252921 304.831667 
L 371.954346 296.747248 
L 373.655771 296.101037 
L 375.357197 298.148673 
L 377.058622 296.03934 
L 379.850705 303.455501 
L 381.633381 304.831667 
L 383.534795 300.703169 
L 387.732753 300.703169 
L 390.745528 297.950836 
L 392.446953 303.915765 
L 394.148378 305.945505 
L 395.849804 296.916235 
L 397.551229 296.626171 
L 397.551229 296.626171 
" clip-path="url(#p32f5cbf3ac)" style="fill: none; stroke: #7f7f7f; stroke-width: 1.5; stroke-linecap: square"/>
   </g>
   <g id="patch_3">
    <path d="M 57.6 307.584 
L 57.6 41.472 
" style="fill: none; stroke: #000000; stroke-width: 0.8; stroke-linejoin: miter; stroke-linecap: square"/>
   </g>
   <g id="patch_4">
    <path d="M 414.72 307.584 
L 414.72 41.472 
" style="fill: none; stroke: #000000; stroke-width: 0.8; stroke-linejoin: miter; stroke-linecap: square"/>
   </g>
   <g id="patch_5">
    <path d="M 57.6 307.584 
L 414.72 307.584 
" style="fill: none; stroke: #000000; stroke-width: 0.8; stroke-linejoin: miter; stroke-linecap: square"/>
   </g>
   <g id="patch_6">
    <path d="M 57.6 41.472 
L 414.72 41.472 
" style="fill: none; stroke: #000000; stroke-width: 0.8; stroke-linejoin: miter; stroke-linecap: square"/>
   </g>
   <g id="legend_1">
    <g id="patch_7">
     <path d="M 64.6 166.897 
L 253.595313 166.897 
Q 255.595313 166.897 255.595313 164.897 
L 255.595313 48.472 
Q 255.595313 46.472 253.595313 46.472 
L 64.6 46.472 
Q 62.6 46.472 62.6 48.472 
L 62.6 164.897 
Q 62.6 166.897 64.6 166.897 
z
" style="fill: #ffffff; opacity: 0.8; stroke: #cccccc; stroke-linejoin: miter"/>
    </g>
    <g id="line2d_43">
     <path d="M 66.6 54.570438 
L 76.6 54.570438 
L 86.6 54.570438 
" style="fill: none; stroke: #1f77b4; stroke-width: 1.5; stroke-linecap: square"/>
    </g>
    <g id="text_20">
     <!-- Network.node[5].app Delay 1.0 -->
     <g transform="translate(94.6 58.070438) scale(0.1 -0.1)">
      <defs>
       <path id="DejaVuSans-4e" d="M 628 4666 
L 1478 4666 
L 3547 763 
L 3547 4666 
L 4159 4666 
L 4159 0 
L 3309 0 
L 1241 3903 
L 1241 0 
L 628 0 
L 628 4666 
z
" transform="scale(0.015625)"/>
       <path id="DejaVuSans-74" d="M 1172 4494 
L 1172 3500 
L 2356 3500 
L 2356 3053 
L 1172 3053 
L 1172 1153 
Q 1172 725 1289 603 
Q 1406 481 1766 481 
L 2356 481 
L 2356 0 
L 1766 0 
Q 1100 0 847 248 
Q 594 497 594 1153 
L 594 3053 
L 172 3053 
L 172 3500 
L 594 3500 
L 594 4494 
L 1172 4494 
z
" transform="scale(0.015625)"/>
       <path id="DejaVuSans-77" d="M 269 3500 
L 844 3500 
L 1563 769 
L 2278 3500 
L 2956 3500 
L 3675 769 
L 4391 3500 
L 4966 3500 
L 4050 0 
L 3372 0 
L 2619 2869 
L 1863 0 
L 1184 0 
L 269 3500 
z
" transform="scale(0.015625)"/>
       <path id="DejaVuSans-6b" d="M 581 4863 
L 1159 4863 
L 1159 1991 
L 2875 3500 
L 3609 3500 
L 1753 1863 
L 3688 0 
L 2938 0 
L 1159 1709 
L 1159 0 
L 581 0 
L 581 4863 
z
" transform="scale(0.015625)"/>
       <path id="DejaVuSans-2e" d="M 684 794 
L 1344 794 
L 1344 0 
L 684 0 
L 684 794 
z
" transform="scale(0.015625)"/>
       <path id="DejaVuSans-5b" d="M 550 4863 
L 1875 4863 
L 1875 4416 
L 1125 4416 
L 1125 -397 
L 1875 -397 
L 1875 -844 
L 550 -844 
L 550 4863 
z
" transform="scale(0.015625)"/>
       <path id="DejaVuSans-5d" d="M 1947 4863 
L 1947 -844 
L 622 -844 
L 622 -397 
L 1369 -397 
L 1369 4416 
L 622 4416 
L 622 4863 
L 1947 4863 
z
" transform="scale(0.015625)"/>
       <path id="DejaVuSans-70" d="M 1159 525 
L 1159 -1331 
L 581 -1331 
L 581 3500 
L 1159 3500 
L 1159 2969 
Q 1341 3281 1617 3432 
Q 1894 3584 2278 3584 
Q 2916 3584 3314 3078 
Q 3713 2572 3713 1747 
Q 3713 922 3314 415 
Q 2916 -91 2278 -91 
Q 1894 -91 1617 61 
Q 1341 213 1159 525 
z
M 3116 1747 
Q 3116 2381 2855 2742 
Q 2594 3103 2138 3103 
Q 1681 3103 1420 2742 
Q 1159 2381 1159 1747 
Q 1159 1113 1420 752 
Q 1681 391 2138 391 
Q 2594 391 2855 752 
Q 3116 1113 3116 1747 
z
" transform="scale(0.015625)"/>
      </defs>
      <use xlink:href="#DejaVuSans-4e"/>
      <use xlink:href="#DejaVuSans-65" x="74.804688"/>
      <use xlink:href="#DejaVuSans-74" x="136.328125"/>
      <use xlink:href="#DejaVuSans-77" x="175.537109"/>
      <use xlink:href="#DejaVuSans-6f" x="257.324219"/>
      <use xlink:href="#DejaVuSans-72" x="318.505859"/>
      <use xlink:href="#DejaVuSans-6b" x="359.619141"/>
      <use xlink:href="#DejaVuSans-2e" x="417.529297"/>
      <use xlink:href="#DejaVuSans-6e" x="449.316406"/>
      <use xlink:href="#DejaVuSans-6f" x="512.695312"/>
      <use xlink:href="#DejaVuSans-64" x="573.876953"/>
      <use xlink:href="#DejaVuSans-65" x="637.353516"/>
      <use xlink:href="#DejaVuSans-5b" x="698.876953"/>
      <use xlink:href="#DejaVuSans-35" x="737.890625"/>
      <use xlink:href="#DejaVuSans-5d" x="801.513672"/>
      <use xlink:href="#DejaVuSans-2e" x="840.527344"/>
      <use xlink:href="#DejaVuSans-61" x="872.314453"/>
      <use xlink:href="#DejaVuSans-70" x="933.59375"/>
      <use xlink:href="#DejaVuSans-70" x="997.070312"/>
      <use xlink:href="#DejaVuSans-20" x="1060.546875"/>
      <use xlink:href="#DejaVuSans-44" x="1092.333984"/>
      <use xlink:href="#DejaVuSans-65" x="1169.335938"/>
      <use xlink:href="#DejaVuSans-6c" x="1230.859375"/>
      <use xlink:href="#DejaVuSans-61" x="1258.642578"/>
      <use xlink:href="#DejaVuSans-79" x="1319.921875"/>
      <use xlink:href="#DejaVuSans-20" x="1379.101562"/>
      <use xlink:href="#DejaVuSans-31" x="1410.888672"/>
      <use xlink:href="#DejaVuSans-2e" x="1474.511719"/>
      <use xlink:href="#DejaVuSans-30" x="1506.298828"/>
     </g>
    </g>
    <g id="line2d_44">
     <path d="M 66.6 69.248563 
L 76.6 69.248563 
L 86.6 69.248563 
" style="fill: none; stroke: #ff7f0e; stroke-width: 1.5; stroke-linecap: square"/>
    </g>
    <g id="text_21">
     <!-- Network.node[5].app Delay 2.0 -->
     <g transform="translate(94.6 72.748563) scale(0.1 -0.1)">
      <use xlink:href="#DejaVuSans-4e"/>
      <use xlink:href="#DejaVuSans-65" x="74.804688"/>
      <use xlink:href="#DejaVuSans-74" x="136.328125"/>
      <use xlink:href="#DejaVuSans-77" x="175.537109"/>
      <use xlink:href="#DejaVuSans-6f" x="257.324219"/>
      <use xlink:href="#DejaVuSans-72" x="318.505859"/>
      <use xlink:href="#DejaVuSans-6b" x="359.619141"/>
      <use xlink:href="#DejaVuSans-2e" x="417.529297"/>
      <use xlink:href="#DejaVuSans-6e" x="449.316406"/>
      <use xlink:href="#DejaVuSans-6f" x="512.695312"/>
      <use xlink:href="#DejaVuSans-64" x="573.876953"/>
      <use xlink:href="#DejaVuSans-65" x="637.353516"/>
      <use xlink:href="#DejaVuSans-5b" x="698.876953"/>
      <use xlink:href="#DejaVuSans-35" x="737.890625"/>
      <use xlink:href="#DejaVuSans-5d" x="801.513672"/>
      <use xlink:href="#DejaVuSans-2e" x="840.527344"/>
      <use xlink:href="#DejaVuSans-61" x="872.314453"/>
      <use xlink:href="#DejaVuSans-70" x="933.59375"/>
      <use xlink:href="#DejaVuSans-70" x="997.070312"/>
      <use xlink:href="#DejaVuSans-20" x="1060.546875"/>
      <use xlink:href="#DejaVuSans-44" x="1092.333984"/>
      <use xlink:href="#DejaVuSans-65" x="1169.335938"/>
      <use xlink:href="#DejaVuSans-6c" x="1230.859375"/>
      <use xlink:href="#DejaVuSans-61" x="1258.642578"/>
      <use xlink:href="#DejaVuSans-79" x="1319.921875"/>
      <use xlink:href="#DejaVuSans-20" x="1379.101562"/>
      <use xlink:href="#DejaVuSans-32" x="1410.888672"/>
      <use xlink:href="#DejaVuSans-2e" x="1474.511719"/>
      <use xlink:href="#DejaVuSans-30" x="1506.298828"/>
     </g>
    </g>
    <g id="line2d_45">
     <path d="M 66.6 83.926688 
L 76.6 83.926688 
L 86.6 83.926688 
" style="fill: none; stroke: #2ca02c; stroke-width: 1.5; stroke-linecap: square"/>
    </g>
    <g id="text_22">
     <!-- Network.node[5].app Delay 3.0 -->
     <g transform="translate(94.6 87.426688) scale(0.1 -0.1)">
      <defs>
       <path id="DejaVuSans-33" d="M 2597 2516 
Q 3050 2419 3304 2112 
Q 3559 1806 3559 1356 
Q 3559 666 3084 287 
Q 2609 -91 1734 -91 
Q 1441 -91 1130 -33 
Q 819 25 488 141 
L 488 750 
Q 750 597 1062 519 
Q 1375 441 1716 441 
Q 2309 441 2620 675 
Q 2931 909 2931 1356 
Q 2931 1769 2642 2001 
Q 2353 2234 1838 2234 
L 1294 2234 
L 1294 2753 
L 1863 2753 
Q 2328 2753 2575 2939 
Q 2822 3125 2822 3475 
Q 2822 3834 2567 4026 
Q 2313 4219 1838 4219 
Q 1578 4219 1281 4162 
Q 984 4106 628 3988 
L 628 4550 
Q 988 4650 1302 4700 
Q 1616 4750 1894 4750 
Q 2613 4750 3031 4423 
Q 3450 4097 3450 3541 
Q 3450 3153 3228 2886 
Q 3006 2619 2597 2516 
z
" transform="scale(0.015625)"/>
      </defs>
      <use xlink:href="#DejaVuSans-4e"/>
      <use xlink:href="#DejaVuSans-65" x="74.804688"/>
      <use xlink:href="#DejaVuSans-74" x="136.328125"/>
      <use xlink:href="#DejaVuSans-77" x="175.537109"/>
      <use xlink:href="#DejaVuSans-6f" x="257.324219"/>
      <use xlink:href="#DejaVuSans-72" x="318.505859"/>
      <use xlink:href="#DejaVuSans-6b" x="359.619141"/>
      <use xlink:href="#DejaVuSans-2e" x="417.529297"/>
      <use xlink:href="#DejaVuSans-6e" x="449.316406"/>
      <use xlink:href="#DejaVuSans-6f" x="512.695312"/>
      <use xlink:href="#DejaVuSans-64" x="573.876953"/>
      <use xlink:href="#DejaVuSans-65" x="637.353516"/>
      <use xlink:href="#DejaVuSans-5b" x="698.876953"/>
      <use xlink:href="#DejaVuSans-35" x="737.890625"/>
      <use xlink:href="#DejaVuSans-5d" x="801.513672"/>
      <use xlink:href="#DejaVuSans-2e" x="840.527344"/>
      <use xlink:href="#DejaVuSans-61" x="872.314453"/>
      <use xlink:href="#DejaVuSans-70" x="933.59375"/>
      <use xlink:href="#DejaVuSans-70" x="997.070312"/>
      <use xlink:href="#DejaVuSans-20" x="1060.546875"/>
      <use xlink:href="#DejaVuSans-44" x="1092.333984"/>
      <use xlink:href="#DejaVuSans-65" x="1169.335938"/>
      <use xlink:href="#DejaVuSans-6c" x="1230.859375"/>
      <use xlink:href="#DejaVuSans-61" x="1258.642578"/>
      <use xlink:href="#DejaVuSans-79" x="1319.921875"/>
      <use xlink:href="#DejaVuSans-20" x="1379.101562"/>
      <use xlink:href="#DejaVuSans-33" x="1410.888672"/>
      <use xlink:href="#DejaVuSans-2e" x="1474.511719"/>
      <use xlink:href="#DejaVuSans-30" x="1506.298828"/>
     </g>
    </g>
    <g id="line2d_46">
     <path d="M 66.6 98.604813 
L 76.6 98.604813 
L 86.6 98.604813 
" style="fill: none; stroke: #d62728; stroke-width: 1.5; stroke-linecap: square"/>
    </g>
    <g id="text_23">
     <!-- Network.node[5].app Delay 4.0 -->
     <g transform="translate(94.6 102.104813) scale(0.1 -0.1)">
      <defs>
       <path id="DejaVuSans-34" d="M 2419 4116 
L 825 1625 
L 2419 1625 
L 2419 4116 
z
M 2253 4666 
L 3047 4666 
L 3047 1625 
L 3713 1625 
L 3713 1100 
L 3047 1100 
L 3047 0 
L 2419 0 
L 2419 1100 
L 313 1100 
L 313 1709 
L 2253 4666 
z
" transform="scale(0.015625)"/>
      </defs>
      <use xlink:href="#DejaVuSans-4e"/>
      <use xlink:href="#DejaVuSans-65" x="74.804688"/>
      <use xlink:href="#DejaVuSans-74" x="136.328125"/>
      <use xlink:href="#DejaVuSans-77" x="175.537109"/>
      <use xlink:href="#DejaVuSans-6f" x="257.324219"/>
      <use xlink:href="#DejaVuSans-72" x="318.505859"/>
      <use xlink:href="#DejaVuSans-6b" x="359.619141"/>
      <use xlink:href="#DejaVuSans-2e" x="417.529297"/>
      <use xlink:href="#DejaVuSans-6e" x="449.316406"/>
      <use xlink:href="#DejaVuSans-6f" x="512.695312"/>
      <use xlink:href="#DejaVuSans-64" x="573.876953"/>
      <use xlink:href="#DejaVuSans-65" x="637.353516"/>
      <use xlink:href="#DejaVuSans-5b" x="698.876953"/>
      <use xlink:href="#DejaVuSans-35" x="737.890625"/>
      <use xlink:href="#DejaVuSans-5d" x="801.513672"/>
      <use xlink:href="#DejaVuSans-2e" x="840.527344"/>
      <use xlink:href="#DejaVuSans-61" x="872.314453"/>
      <use xlink:href="#DejaVuSans-70" x="933.59375"/>
      <use xlink:href="#DejaVuSans-70" x="997.070312"/>
      <use xlink:href="#DejaVuSans-20" x="1060.546875"/>
      <use xlink:href="#DejaVuSans-44" x="1092.333984"/>
      <use xlink:href="#DejaVuSans-65" x="1169.335938"/>
      <use xlink:href="#DejaVuSans-6c" x="1230.859375"/>
      <use xlink:href="#DejaVuSans-61" x="1258.642578"/>
      <use xlink:href="#DejaVuSans-79" x="1319.921875"/>
      <use xlink:href="#DejaVuSans-20" x="1379.101562"/>
      <use xlink:href="#DejaVuSans-34" x="1410.888672"/>
      <use xlink:href="#DejaVuSans-2e" x="1474.511719"/>
      <use xlink:href="#DejaVuSans-30" x="1506.298828"/>
     </g>
    </g>
    <g id="line2d_47">
     <path d="M 66.6 113.282938 
L 76.6 113.282938 
L 86.6 113.282938 
" style="fill: none; stroke: #9467bd; stroke-width: 1.5; stroke-linecap: square"/>
    </g>
    <g id="text_24">
     <!-- Network.node[5].app Delay 5.0 -->
     <g transform="translate(94.6 116.782938) scale(0.1 -0.1)">
      <use xlink:href="#DejaVuSans-4e"/>
      <use xlink:href="#DejaVuSans-65" x="74.804688"/>
      <use xlink:href="#DejaVuSans-74" x="136.328125"/>
      <use xlink:href="#DejaVuSans-77" x="175.537109"/>
      <use xlink:href="#DejaVuSans-6f" x="257.324219"/>
      <use xlink:href="#DejaVuSans-72" x="318.505859"/>
      <use xlink:href="#DejaVuSans-6b" x="359.619141"/>
      <use xlink:href="#DejaVuSans-2e" x="417.529297"/>
      <use xlink:href="#DejaVuSans-6e" x="449.316406"/>
      <use xlink:href="#DejaVuSans-6f" x="512.695312"/>
      <use xlink:href="#DejaVuSans-64" x="573.876953"/>
      <use xlink:href="#DejaVuSans-65" x="637.353516"/>
      <use xlink:href="#DejaVuSans-5b" x="698.876953"/>
      <use xlink:href="#DejaVuSans-35" x="737.890625"/>
      <use xlink:href="#DejaVuSans-5d" x="801.513672"/>
      <use xlink:href="#DejaVuSans-2e" x="840.527344"/>
      <use xlink:href="#DejaVuSans-61" x="872.314453"/>
      <use xlink:href="#DejaVuSans-70" x="933.59375"/>
      <use xlink:href="#DejaVuSans-70" x="997.070312"/>
      <use xlink:href="#DejaVuSans-20" x="1060.546875"/>
      <use xlink:href="#DejaVuSans-44" x="1092.333984"/>
      <use xlink:href="#DejaVuSans-65" x="1169.335938"/>
      <use xlink:href="#DejaVuSans-6c" x="1230.859375"/>
      <use xlink:href="#DejaVuSans-61" x="1258.642578"/>
      <use xlink:href="#DejaVuSans-79" x="1319.921875"/>
      <use xlink:href="#DejaVuSans-20" x="1379.101562"/>
      <use xlink:href="#DejaVuSans-35" x="1410.888672"/>
      <use xlink:href="#DejaVuSans-2e" x="1474.511719"/>
      <use xlink:href="#DejaVuSans-30" x="1506.298828"/>
     </g>
    </g>
    <g id="line2d_48">
     <path d="M 66.6 127.961063 
L 76.6 127.961063 
L 86.6 127.961063 
" style="fill: none; stroke: #8c564b; stroke-width: 1.5; stroke-linecap: square"/>
    </g>
    <g id="text_25">
     <!-- Network.node[5].app Delay 6.0 -->
     <g transform="translate(94.6 131.461063) scale(0.1 -0.1)">
      <defs>
       <path id="DejaVuSans-36" d="M 2113 2584 
Q 1688 2584 1439 2293 
Q 1191 2003 1191 1497 
Q 1191 994 1439 701 
Q 1688 409 2113 409 
Q 2538 409 2786 701 
Q 3034 994 3034 1497 
Q 3034 2003 2786 2293 
Q 2538 2584 2113 2584 
z
M 3366 4563 
L 3366 3988 
Q 3128 4100 2886 4159 
Q 2644 4219 2406 4219 
Q 1781 4219 1451 3797 
Q 1122 3375 1075 2522 
Q 1259 2794 1537 2939 
Q 1816 3084 2150 3084 
Q 2853 3084 3261 2657 
Q 3669 2231 3669 1497 
Q 3669 778 3244 343 
Q 2819 -91 2113 -91 
Q 1303 -91 875 529 
Q 447 1150 447 2328 
Q 447 3434 972 4092 
Q 1497 4750 2381 4750 
Q 2619 4750 2861 4703 
Q 3103 4656 3366 4563 
z
" transform="scale(0.015625)"/>
      </defs>
      <use xlink:href="#DejaVuSans-4e"/>
      <use xlink:href="#DejaVuSans-65" x="74.804688"/>
      <use xlink:href="#DejaVuSans-74" x="136.328125"/>
      <use xlink:href="#DejaVuSans-77" x="175.537109"/>
      <use xlink:href="#DejaVuSans-6f" x="257.324219"/>
      <use xlink:href="#DejaVuSans-72" x="318.505859"/>
      <use xlink:href="#DejaVuSans-6b" x="359.619141"/>
      <use xlink:href="#DejaVuSans-2e" x="417.529297"/>
      <use xlink:href="#DejaVuSans-6e" x="449.316406"/>
      <use xlink:href="#DejaVuSans-6f" x="512.695312"/>
      <use xlink:href="#DejaVuSans-64" x="573.876953"/>
      <use xlink:href="#DejaVuSans-65" x="637.353516"/>
      <use xlink:href="#DejaVuSans-5b" x="698.876953"/>
      <use xlink:href="#DejaVuSans-35" x="737.890625"/>
      <use xlink:href="#DejaVuSans-5d" x="801.513672"/>
      <use xlink:href="#DejaVuSans-2e" x="840.527344"/>
      <use xlink:href="#DejaVuSans-61" x="872.314453"/>
      <use xlink:href="#DejaVuSans-70" x="933.59375"/>
      <use xlink:href="#DejaVuSans-70" x="997.070312"/>
      <use xlink:href="#DejaVuSans-20" x="1060.546875"/>
      <use xlink:href="#DejaVuSans-44" x="1092.333984"/>
      <use xlink:href="#DejaVuSans-65" x="1169.335938"/>
      <use xlink:href="#DejaVuSans-6c" x="1230.859375"/>
      <use xlink:href="#DejaVuSans-61" x="1258.642578"/>
      <use xlink:href="#DejaVuSans-79" x="1319.921875"/>
      <use xlink:href="#DejaVuSans-20" x="1379.101562"/>
      <use xlink:href="#DejaVuSans-36" x="1410.888672"/>
      <use xlink:href="#DejaVuSans-2e" x="1474.511719"/>
      <use xlink:href="#DejaVuSans-30" x="1506.298828"/>
     </g>
    </g>
    <g id="line2d_49">
     <path d="M 66.6 142.639188 
L 76.6 142.639188 
L 86.6 142.639188 
" style="fill: none; stroke: #e377c2; stroke-width: 1.5; stroke-linecap: square"/>
    </g>
    <g id="text_26">
     <!-- Network.node[5].app Delay 7.0 -->
     <g transform="translate(94.6 146.139188) scale(0.1 -0.1)">
      <use xlink:href="#DejaVuSans-4e"/>
      <use xlink:href="#DejaVuSans-65" x="74.804688"/>
      <use xlink:href="#DejaVuSans-74" x="136.328125"/>
      <use xlink:href="#DejaVuSans-77" x="175.537109"/>
      <use xlink:href="#DejaVuSans-6f" x="257.324219"/>
      <use xlink:href="#DejaVuSans-72" x="318.505859"/>
      <use xlink:href="#DejaVuSans-6b" x="359.619141"/>
      <use xlink:href="#DejaVuSans-2e" x="417.529297"/>
      <use xlink:href="#DejaVuSans-6e" x="449.316406"/>
      <use xlink:href="#DejaVuSans-6f" x="512.695312"/>
      <use xlink:href="#DejaVuSans-64" x="573.876953"/>
      <use xlink:href="#DejaVuSans-65" x="637.353516"/>
      <use xlink:href="#DejaVuSans-5b" x="698.876953"/>
      <use xlink:href="#DejaVuSans-35" x="737.890625"/>
      <use xlink:href="#DejaVuSans-5d" x="801.513672"/>
      <use xlink:href="#DejaVuSans-2e" x="840.527344"/>
      <use xlink:href="#DejaVuSans-61" x="872.314453"/>
      <use xlink:href="#DejaVuSans-70" x="933.59375"/>
      <use xlink:href="#DejaVuSans-70" x="997.070312"/>
      <use xlink:href="#DejaVuSans-20" x="1060.546875"/>
      <use xlink:href="#DejaVuSans-44" x="1092.333984"/>
      <use xlink:href="#DejaVuSans-65" x="1169.335938"/>
      <use xlink:href="#DejaVuSans-6c" x="1230.859375"/>
      <use xlink:href="#DejaVuSans-61" x="1258.642578"/>
      <use xlink:href="#DejaVuSans-79" x="1319.921875"/>
      <use xlink:href="#DejaVuSans-20" x="1379.101562"/>
      <use xlink:href="#DejaVuSans-37" x="1410.888672"/>
      <use xlink:href="#DejaVuSans-2e" x="1474.511719"/>
      <use xlink:href="#DejaVuSans-30" x="1506.298828"/>
     </g>
    </g>
    <g id="line2d_50">
     <path d="M 66.6 157.317313 
L 76.6 157.317313 
L 86.6 157.317313 
" style="fill: none; stroke: #7f7f7f; stroke-width: 1.5; stroke-linecap: square"/>
    </g>
    <g id="text_27">
     <!-- Network.node[5].app Delay 8.0 -->
     <g transform="translate(94.6 160.817313) scale(0.1 -0.1)">
      <defs>
       <path id="DejaVuSans-38" d="M 2034 2216 
Q 1584 2216 1326 1975 
Q 1069 1734 1069 1313 
Q 1069 891 1326 650 
Q 1584 409 2034 409 
Q 2484 409 2743 651 
Q 3003 894 3003 1313 
Q 3003 1734 2745 1975 
Q 2488 2216 2034 2216 
z
M 1403 2484 
Q 997 2584 770 2862 
Q 544 3141 544 3541 
Q 544 4100 942 4425 
Q 1341 4750 2034 4750 
Q 2731 4750 3128 4425 
Q 3525 4100 3525 3541 
Q 3525 3141 3298 2862 
Q 3072 2584 2669 2484 
Q 3125 2378 3379 2068 
Q 3634 1759 3634 1313 
Q 3634 634 3220 271 
Q 2806 -91 2034 -91 
Q 1263 -91 848 271 
Q 434 634 434 1313 
Q 434 1759 690 2068 
Q 947 2378 1403 2484 
z
M 1172 3481 
Q 1172 3119 1398 2916 
Q 1625 2713 2034 2713 
Q 2441 2713 2670 2916 
Q 2900 3119 2900 3481 
Q 2900 3844 2670 4047 
Q 2441 4250 2034 4250 
Q 1625 4250 1398 4047 
Q 1172 3844 1172 3481 
z
" transform="scale(0.015625)"/>
      </defs>
      <use xlink:href="#DejaVuSans-4e"/>
      <use xlink:href="#DejaVuSans-65" x="74.804688"/>
      <use xlink:href="#DejaVuSans-74" x="136.328125"/>
      <use xlink:href="#DejaVuSans-77" x="175.537109"/>
      <use xlink:href="#DejaVuSans-6f" x="257.324219"/>
      <use xlink:href="#DejaVuSans-72" x="318.505859"/>
      <use xlink:href="#DejaVuSans-6b" x="359.619141"/>
      <use xlink:href="#DejaVuSans-2e" x="417.529297"/>
      <use xlink:href="#DejaVuSans-6e" x="449.316406"/>
      <use xlink:href="#DejaVuSans-6f" x="512.695312"/>
      <use xlink:href="#DejaVuSans-64" x="573.876953"/>
      <use xlink:href="#DejaVuSans-65" x="637.353516"/>
      <use xlink:href="#DejaVuSans-5b" x="698.876953"/>
      <use xlink:href="#DejaVuSans-35" x="737.890625"/>
      <use xlink:href="#DejaVuSans-5d" x="801.513672"/>
      <use xlink:href="#DejaVuSans-2e" x="840.527344"/>
      <use xlink:href="#DejaVuSans-61" x="872.314453"/>
      <use xlink:href="#DejaVuSans-70" x="933.59375"/>
      <use xlink:href="#DejaVuSans-70" x="997.070312"/>
      <use xlink:href="#DejaVuSans-20" x="1060.546875"/>
      <use xlink:href="#DejaVuSans-44" x="1092.333984"/>
      <use xlink:href="#DejaVuSans-65" x="1169.335938"/>
      <use xlink:href="#DejaVuSans-6c" x="1230.859375"/>
      <use xlink:href="#DejaVuSans-61" x="1258.642578"/>
      <use xlink:href="#DejaVuSans-79" x="1319.921875"/>
      <use xlink:href="#DejaVuSans-20" x="1379.101562"/>
      <use xlink:href="#DejaVuSans-38" x="1410.888672"/>
      <use xlink:href="#DejaVuSans-2e" x="1474.511719"/>
      <use xlink:href="#DejaVuSans-30" x="1506.298828"/>
     </g>
    </g>
   </g>
  </g>
 </g>
 <defs>
  <clipPath id="p32f5cbf3ac">
   <rect x="57.6" y="41.472" width="357.12" height="266.112"/>
  </clipPath>
 </defs>
</svg>
